<svg id="Layer_10" data-name="Layer 10" xmlns="http://www.w3.org/2000/svg" xmlns:xlink="http://www.w3.org/1999/xlink" viewBox="0 0 750.42 600.55"><defs><style>.cls-1,.cls-32,.cls-38,.cls-60{fill:none;}.cls-2{clip-path:url(#clip-path);}.cls-3{fill:#ecbcb4;}.cls-4{opacity:0.6;fill:url(#linear-gradient);}.cls-5{fill:url(#linear-gradient-2);}.cls-25,.cls-27,.cls-6,.cls-7,.cls-8,.cls-9{fill:#cca59f;}.cls-6{opacity:0.9;}.cls-63,.cls-7,.cls-74{opacity:0.36;}.cls-8{opacity:0.51;}.cls-10{fill:#5e0000;}.cls-11{fill:#430000;opacity:0.69;}.cls-12{fill:#0c143d;}.cls-13,.cls-42{fill:#d3d3d3;}.cls-14{fill:#f9f9f9;}.cls-15{fill:url(#linear-gradient-3);}.cls-16{fill:url(#linear-gradient-4);}.cls-17,.cls-18,.cls-19,.cls-22,.cls-23,.cls-24,.cls-67,.cls-68{opacity:0.7;}.cls-17{fill:url(#linear-gradient-5);}.cls-18{fill:url(#linear-gradient-6);}.cls-19{fill:url(#linear-gradient-7);}.cls-20{fill:url(#linear-gradient-8);}.cls-21{fill:url(#linear-gradient-9);}.cls-22{fill:url(#linear-gradient-10);}.cls-23{fill:url(#linear-gradient-11);}.cls-24{fill:url(#linear-gradient-12);}.cls-25,.cls-50{opacity:0.4;}.cls-26{fill:#997c7a;}.cls-27,.cls-53{opacity:0.44;}.cls-28,.cls-29,.cls-31{fill:#f2ccc7;}.cls-29,.cls-65{opacity:0.58;}.cls-30,.cls-57{opacity:0.3;}.cls-31{opacity:0.48;}.cls-32,.cls-38,.cls-60{stroke:#000;stroke-miterlimit:10;}.cls-32{stroke-width:0.5px;}.cls-33{fill:#636068;}.cls-34{fill:#756e7c;}.cls-35{fill:#c4bccf;}.cls-36,.cls-37,.cls-47,.cls-48,.cls-49,.cls-50,.cls-51,.cls-52,.cls-53{fill:#070d28;}.cls-37,.cls-41{opacity:0.68;}.cls-39{fill:#b2928e;}.cls-40{opacity:0.82;}.cls-42{opacity:0.24;}.cls-43{fill:#c7d3d3;opacity:0.47;}.cls-44,.cls-46,.cls-54,.cls-55,.cls-56{fill:#0c1944;}.cls-44{opacity:0.33;}.cls-45{fill:#0a143f;}.cls-47{opacity:0.32;}.cls-48{opacity:0.28;}.cls-49{opacity:0.59;}.cls-51{opacity:0.42;}.cls-52{opacity:0.23;}.cls-54{opacity:0.15;}.cls-55{opacity:0.37;}.cls-56{opacity:0.31;}.cls-58{fill:#9f757d;}.cls-58,.cls-61{opacity:0.35;}.cls-59,.cls-61{fill:#966b75;}.cls-59{opacity:0.49;}.cls-60{stroke-width:0.39px;}.cls-62{fill:#65524d;}.cls-63,.cls-64,.cls-65,.cls-73{fill:#564541;}.cls-64{opacity:0.45;}.cls-66{fill:#51423e;opacity:0.18;}.cls-67{fill:url(#radial-gradient);}.cls-68{fill:url(#radial-gradient-2);}.cls-69,.cls-70{fill:#80706a;}.cls-69,.cls-71{opacity:0.5;}.cls-71{fill:url(#linear-gradient-13);}.cls-72{opacity:0.56;}.cls-74{fill:url(#linear-gradient-14);}</style><clipPath id="clip-path" transform="translate(-599.55 -281.52)"><rect class="cls-1" x="593.81" y="237.21" width="640.47" height="640.47"/></clipPath><linearGradient id="linear-gradient" x1="983.55" y1="566.85" x2="803.08" y2="700.72" gradientUnits="userSpaceOnUse"><stop offset="0" stop-color="#cca59f"/><stop offset="0.12" stop-color="#cca7a1" stop-opacity="0.91"/><stop offset="0.37" stop-color="#ccaba7" stop-opacity="0.69"/><stop offset="0.71" stop-color="#cbb1b1" stop-opacity="0.33"/><stop offset="1" stop-color="#cbb7ba" stop-opacity="0"/></linearGradient><linearGradient id="linear-gradient-2" x1="993.16" y1="586.45" x2="868.77" y2="678.72" gradientUnits="userSpaceOnUse"><stop offset="0" stop-color="#cca59f"/><stop offset="0.11" stop-color="#cca5a0" stop-opacity="0.97"/><stop offset="0.25" stop-color="#cca7a2" stop-opacity="0.9"/><stop offset="0.41" stop-color="#cca9a5" stop-opacity="0.77"/><stop offset="0.58" stop-color="#ccacaa" stop-opacity="0.59"/><stop offset="0.76" stop-color="#cbb0b0" stop-opacity="0.36"/><stop offset="0.95" stop-color="#cbb5b8" stop-opacity="0.09"/><stop offset="1" stop-color="#cbb7ba" stop-opacity="0"/></linearGradient><linearGradient id="linear-gradient-3" x1="939" y1="436.5" x2="939.78" y2="450.37" gradientUnits="userSpaceOnUse"><stop offset="0" stop-color="#1137dc"/><stop offset="0.37" stop-color="#1152e0"/><stop offset="0.75" stop-color="#1266e3"/><stop offset="1" stop-color="#126ee4"/></linearGradient><linearGradient id="linear-gradient-4" x1="939.1" y1="434.95" x2="939.63" y2="450.61" gradientUnits="userSpaceOnUse"><stop offset="0" stop-color="#1447c1"/><stop offset="1" stop-color="#3187df"/></linearGradient><linearGradient id="linear-gradient-5" x1="338.05" y1="158.64" x2="339.66" y2="158.64" gradientUnits="userSpaceOnUse"><stop offset="0" stop-color="#f9f9f9"/><stop offset="1" stop-color="#2258aa"/></linearGradient><linearGradient id="linear-gradient-6" x1="338.05" y1="162.88" x2="338.85" y2="162.88" xlink:href="#linear-gradient-5"/><linearGradient id="linear-gradient-7" x1="342.53" y1="162.66" x2="342.8" y2="162.66" xlink:href="#linear-gradient-5"/><linearGradient id="linear-gradient-8" x1="847.04" y1="445" x2="846.78" y2="458.92" gradientTransform="translate(21.9 -37.45) rotate(2.36)" xlink:href="#linear-gradient-3"/><linearGradient id="linear-gradient-9" x1="846.39" y1="445.08" x2="847.7" y2="457.79" gradientTransform="translate(21.9 -37.45) rotate(2.36)" xlink:href="#linear-gradient-4"/><linearGradient id="linear-gradient-10" x1="844.23" y1="449.1" x2="845.64" y2="449.1" gradientTransform="translate(1296.72 -398.85) rotate(90)" xlink:href="#linear-gradient-5"/><linearGradient id="linear-gradient-11" x1="844.93" y1="451.6" x2="845.64" y2="451.6" gradientTransform="translate(-577.65 -318.97) rotate(2.36)" xlink:href="#linear-gradient-5"/><linearGradient id="linear-gradient-12" x1="848.09" y1="451.27" x2="848.33" y2="451.27" gradientTransform="translate(1302.07 -399.82) rotate(90)" xlink:href="#linear-gradient-5"/><radialGradient id="radial-gradient" cx="936.85" cy="334.01" fx="961.2064153164497" r="24.37" gradientTransform="translate(1783.34 -311.51) rotate(114.32) scale(1 1.51)" gradientUnits="userSpaceOnUse"><stop offset="0.2" stop-color="#564541"/><stop offset="1" stop-color="#80706a" stop-opacity="0.55"/></radialGradient><radialGradient id="radial-gradient-2" cx="861" cy="341.96" r="29.96" gradientTransform="matrix(0.2, 0.98, -1.47, 0.3, 1191.2, -604.77)" gradientUnits="userSpaceOnUse"><stop offset="0" stop-color="#564541"/><stop offset="1" stop-color="#80706a" stop-opacity="0.55"/></radialGradient><linearGradient id="linear-gradient-13" x1="898.96" y1="356.63" x2="901.91" y2="301.95" gradientUnits="userSpaceOnUse"><stop offset="0" stop-color="#564541"/><stop offset="0.42" stop-color="#6e5d58" stop-opacity="0.75"/><stop offset="1" stop-color="#80706a" stop-opacity="0.55"/></linearGradient><linearGradient id="linear-gradient-14" x1="878.17" y1="367.72" x2="946.44" y2="369.07" gradientUnits="userSpaceOnUse"><stop offset="0" stop-color="#564541" stop-opacity="0.3"/><stop offset="0.05" stop-color="#453734" stop-opacity="0.34"/><stop offset="0.2" stop-color="#1d1716" stop-opacity="0.43"/><stop offset="0.42" stop-color="#060505" stop-opacity="0.49"/><stop offset="1" stop-opacity="0.5"/></linearGradient></defs><g class="cls-2"><path class="cls-3" d="M833.43,588.75l.23,15.79s5.58,20.45,5.26,21.85-1.2,3.8-1.2,3.8.34,21.9,5.16,25.21L853,674.51l1.07,2.77s15.52,24.64,24.54,34.84,15.08,26.57,21.76,10.1c0,0,31.65-31,41.47-32.43,0,0,39.08-49.39,41.4-57.82,0,0,.13-29.42-.42-33.17,0,0-5.72-15.26-4.63-28.4C952.75,614.87,885.11,648.9,833.43,588.75Z" transform="translate(-599.55 -281.52)"/><path class="cls-4" d="M835.17,600.32s10.25,13.58,15.63,17.81,24.57,18.56,31.88,27.27c6.51,7.78,17.2,26.74,19.24,26.5,4.76-.56,7.66-16.38,14.61-18.34s14.18,1.62,15.39,5.21c4.64,13.77-9.28,38.45-9.28,38.45s51.89-59.36,51.74-67.71.38-53.12.38-53.12l-140.44,16Z" transform="translate(-599.55 -281.52)"/><path class="cls-5" d="M894.06,612.91s16.47,25.17,23.6,29.78c7.56,4.9,26.59-1.37,29.09,1.48,3.63,4.12,1.61,22.58,1.61,22.58s26.17-28.89,26-37.24.38-53.12.38-53.12Z" transform="translate(-599.55 -281.52)"/><path class="cls-6" d="M900.39,722.22s31.65-31,41.47-32.43c0,0,39.08-49.39,41.4-57.82,0,0,.13-29.42-.42-33.17,0,0-5.72-15.26-4.63-28.4-1.19,2.08-5,7.82-6.38,9.85.06,8.59-2,19.41-1.68,23.24.56,7-2.57,18.41-3.62,24.75s-27.32,42.57-29.74,47.7-26,28.9-27.06,31.06c-3.11,6.69-22,17.3-28.75-.26-1-2.66-10.76-14.8-12.57-21.29s-22.2-30.66-24.45-35-2.26-22.93-1-30.18-4.36-12.72-5.71-17.17c-.75-2.43-.22-10.31-.22-10.31-1.22-1.29-2.42-2.62-3.62-4l.23,15.79s5.58,20.45,5.26,21.85-1.2,3.8-1.2,3.8.34,21.9,5.16,25.21L853,674.51l1.07,2.77s16.14,24.12,24.54,34.84C887.24,723.1,892.47,741.08,900.39,722.22Z" transform="translate(-599.55 -281.52)"/><path class="cls-3" d="M793.33,479.58s-8.46-30.82-7.79-37,8.61-87.21,14.72-90.6,60.53-30.57,71.36-29.89,70.88,3.62,76.74,7,32.49,33.06,34.91,40.3,8.93,71.48,9,76c0,1.51.44,8.39.44,8.39s6.19-16.5,14.34-2.14c4.47,7.88,4.47,19.65-1.39,34.47-.83,2.11-1.91,20.58-1.62,24.77,1,14.9-10.86,18-13.5,14.23.49,9.85-10.12,41.19-10.12,41.19-33,60.1-115.2,86.29-163.91-2.41l-12.43-28.88s-.82,6.4-3.7,7.28c-7.62,2.33-11.3-10.2-12.73-18.65-1-5.69-4.93-13.7-7.51-16a32.38,32.38,0,0,1-9-14.94c-1.29-6-.49-22.66,5.81-24.07C786.7,466.43,793.33,479.58,793.33,479.58Z" transform="translate(-599.55 -281.52)"/><path class="cls-7" d="M896.72,621.27c33.57.17,65.84-22.41,83.69-54.93,0,0,10.61-31.34,10.12-41.19,2.64,3.77,14.54.67,13.5-14.23-.29-4.19.79-22.66,1.62-24.77,5.86-14.82,5.86-26.59,1.39-34.47-8.15-14.36-14.34,2.14-14.34,2.14s-.42-6.88-.44-8.39c-.06-4.5-6.56-68.73-9-76s-29-36.9-34.91-40.3c-5.26-3-58.5-9.18-76.32-10.19,4.69,15.25,17.25,43.06,23.24,49.36,8.91,9.35,17.06,41,13.67,43.77-6,4.87-30.69,8.85-28.24,11.77s25.91,36.85,25.91,42.81c0,7.7-7.84,23-6.65,30.47,5.8,36.42,39.48,49.14,39.48,52.38,0,2.8-40.12,15.48-45.28,25-4.47,8.27,16.87,9.91,10.5,24A158.17,158.17,0,0,0,896.72,621.27Z" transform="translate(-599.55 -281.52)"/><path class="cls-8" d="M813.77,440.16l-15.62,9.51-1.28,6.65s9.91-4,13.43-4.23c2.52-.13,11.08.06,11.53,1.87S815,465.07,815,465.07s9.68-5.6,15.34-5.6,6.68-1.87,11,1.75,16.64,1.75,18.4-.45c3.66-4.61,10.16-5.55,12.79-6.34,4-1.19,9.11-8.46,10-9.62s5.62-8,12.79-7.93,11.82,2.57,13.41,8.67,15.63,10.37,20.27,10.58c7.43.32,11.28,2.74,17.53,2.09,6.58-.68,15.83-8.38,17.51-10,2.26-2.16,21.64-8.08,21.64-8.08s-2.69-12.78-6.92-16.47c-2.63-2.29-4.82-17-47.91-7.35,0,0-31.85,9.2-35.4,9.91s-37-9.56-44.63-9.1-32.58,1.28-38.69,4.75,25.08-1.06,27,1.28S813.77,440.16,813.77,440.16Z" transform="translate(-599.55 -281.52)"/><path class="cls-9" d="M795.93,467.11s.48-8.68,2.14-10.19,2-36.91,2-36.91l3.25,2.37-.6-13.38,3.74-8.68-4-8.32s1.19.07,2.38-1.82c0,0-1.36-2.62-.68-4l1.36.31,8.77-16.61s1.09,2.53,2.38,2.91c0,0,9.92-14.68,12-16,0,0,.26,2.38,1.9,2.33,0,0,11.68-11.23,14.25-11.68a11.18,11.18,0,0,0,0,2.9s20.79-8.88,22.75-8.66c0,0,25.61,7.23,27.42,9.79l1.66-2.71,1.21,1.13.53-1.66,1.66,1.51.75-1.66,1.36,1s18.34-9.18,22.72-8.5a10.82,10.82,0,0,1,6.49,3.33l1.13-2,1.28,2.31,1.66-1.43.38,2s6.22-2.09,7.28-2c0,0-.06,4.41.66,5.69a25.47,25.47,0,0,1,11.08,2.82s-1.74,2.41-1.36,2.71c0,0,8.91,5.95,9.58,7.38,0,0-2.64.38-2.49,1.81,0,0,4.38,3.4,4.76,4.23l-1.44.53s7.21,7.94,7.21,8.32l-1.28-.15,4.05,8.68-1.82-.44s2.18,22.1,1.66,23.53c0,0,15.43,38.61,14.83,43.66l3.29,4.84s3.3-10.21,2.21-17.62S985.24,371,982.75,367s-59.62-61.74-72.45-52.61c0,0-92.38,26.27-106.57,45.06s-17.28,108.87-17.28,108.87l7.42,12.19.79.9h1.52s-2.86-11.17-2.26-12.68l2-1.13" transform="translate(-599.55 -281.52)"/><path class="cls-10" d="M979.13,593s-.22,35.6-.68,36.51c-8.87,17.4-36.39,54.58-39,58.81,16.8-5.58,41.79-12.78,43.31-54.23C983.84,604.72,984.79,601.43,979.13,593Z" transform="translate(-599.55 -281.52)"/><path class="cls-11" d="M979.68,593l-1.23,36.51,7.78,4.58S989.89,601.43,979.68,593Z" transform="translate(-599.55 -281.52)"/><path class="cls-11" d="M985.17,639.38l-32.94,45.45,4.87,11.83S989.48,658,985.17,639.38Z" transform="translate(-599.55 -281.52)"/><path class="cls-10" d="M837.92,628.24s-3.47,20.3,15.25,45.89c0,0-2.73,2.92,37.27,51.42,0,0-55.32-18.63-56.27-19.73s-7.28-7.67-13.5-49.42C820.67,656.4,822.6,656.62,837.92,628.24Z" transform="translate(-599.55 -281.52)"/><path class="cls-12" d="M838.26,627.94s-1.28-14.08-5-23.25c0,0-22.37-4.58-22.82-4.52S779.35,619.45,778,621.39s-10,14.57-9.21,16.46c0,0-14,.43-11.66,12.2,0,0,.26,11.78,3.21,13.4,0,0-44.76,13.32-87.25,51.89l1.06,3s-13.36,3-19,38.65c0,0-19.62,19.69-23.25,40.6,0,0-12.15,16.6-10,32.45l-6.94,7.4S603.66,877,600.49,880.79h749s2.36.31-12.63-21.44c0,0-2.16-3.76-27.14-40.39,0,0,2.3.45-6.11-9,0,0-14.26-14.84-14.08-18.44,0,0-11.67-15.88-24.65-30.91,0,0-3.92-6.8-7.24-9.75,0,0-2.72-4.37-43.32-53.81,0,0,1.09-1.27-8.25-12.39l-17-19.92a14.79,14.79,0,0,0-8.53-6.63s-2.5-8-12.08-7.4c0,0-6.59-1-7.37-2.82,0,0-14.73-7.52-86.28-21.33,0,0,3-24.3-18.31-32.19s-22,.43-24.29,2.46-11.39,11.22-13.41-1-11.16-9.76-20.6-3h-1.66s-2.71-17.59-18.18-10.72c0,0-.76,13.59,4.45,16.83,0,0,1.28,16.38-.91,51.47,0,0-8.9,21.66-19.92,27.32,0,0-16,10-21.09,10.34,0,0-46.38,36.23-46.53,40.16L833.7,705.83s-8.76-12.61-13.14-48.16Z" transform="translate(-599.55 -281.52)"/><path class="cls-13" d="M939.3,450.4s-15.16.22-15.93-3.36,5.35-8.43,8.35-9.33c12.81-3.84,23.89,2.12,26.54,6.46C959.39,446,953,449.44,939.3,450.4Z" transform="translate(-599.55 -281.52)"/><path class="cls-14" d="M939.59,450.21s-12.37.17-13-2.62,4.36-6.55,6.81-7.24c10.44-3,19.47,1.64,21.63,5C956,446.8,950.78,449.46,939.59,450.21Z" transform="translate(-599.55 -281.52)"/><path class="cls-15" d="M948.36,443.28a9,9,0,0,0-2.49-6.2,28.53,28.53,0,0,0-13.33.41,9,9,0,0,0,1.17,12.74c3,.21,5.59.17,5.59.17,2.32-.16,4.43-.4,6.33-.68A9,9,0,0,0,948.36,443.28Z" transform="translate(-599.55 -281.52)"/><path class="cls-16" d="M946.51,443.31a7.07,7.07,0,0,0-2-4.92,22.64,22.64,0,0,0-10.58.32,7.05,7.05,0,0,0-1.69,4.6,7.13,7.13,0,0,0,2.62,5.53c2.42.16,4.44.13,4.44.13,1.84-.13,3.52-.32,5-.54A7.1,7.1,0,0,0,946.51,443.31Z" transform="translate(-599.55 -281.52)"/><circle cx="340.14" cy="161.76" r="3.12"/><ellipse class="cls-17" cx="338.85" cy="158.64" rx="0.81" ry="1.34"/><circle class="cls-18" cx="338.45" cy="162.88" r="0.4"/><ellipse class="cls-19" cx="342.66" cy="162.66" rx="0.13" ry="1.36"/><path d="M948.22,449.65s9.7-3.46,9.27-5.16c-.35-1.4-9.27-8.29-17.66-7.3-13.49,1.59-16.15,6.3-15.54,9.45.26,1.33,9.12,3.72,10,3.76,0,0-12.35-.78-12.65-2.8-.54-3.57,5.55-11.2,15.48-11.78,11.53-.67,20.94,5.52,21.83,8.13C960,446.89,948.22,449.65,948.22,449.65Z" transform="translate(-599.55 -281.52)"/><path class="cls-13" d="M836.06,447.05s-4.09,2-3.57,5.87c.37,2.73,12.11,1,16.47.72s16.84-.95,16.72-3.63-5.21-8.67-16.17-7.11C846.1,443.38,836.06,447.05,836.06,447.05Z" transform="translate(-599.55 -281.52)"/><path class="cls-14" d="M838.2,447.92s-3.42,1.79-3,5.25c.3,2.44,10.1.86,13.75.61s14.06-.89,14-3.29-4.34-7.73-13.49-6.31C846.59,444.62,838.2,447.92,838.2,447.92Z" transform="translate(-599.55 -281.52)"/><path class="cls-20" d="M857.43,447.67a7.81,7.81,0,0,0-1.41-4.8,22.19,22.19,0,0,0-6.51,0A54.56,54.56,0,0,0,842.1,445a7.74,7.74,0,0,0-.37,2.06,7.87,7.87,0,0,0,3.62,6.94c1.42-.14,2.68-.26,3.61-.32,1.36-.08,3.51-.2,5.82-.42A7.86,7.86,0,0,0,857.43,447.67Z" transform="translate(-599.55 -281.52)"/><path class="cls-21" d="M856.1,447.77a6.47,6.47,0,0,0-1.17-4,18.24,18.24,0,0,0-5.42,0,46,46,0,0,0-6.16,1.71,7,7,0,0,0-.31,1.72,6.52,6.52,0,0,0,3,5.77c1.17-.11,2.23-.22,3-.26,1.13-.07,2.91-.18,4.83-.35A6.54,6.54,0,0,0,856.1,447.77Z" transform="translate(-599.55 -281.52)"/><circle cx="249.98" cy="166.98" r="2.73"/><ellipse class="cls-22" cx="847.62" cy="446.08" rx="1.18" ry="0.71" transform="matrix(0.04, -1, 1, 0.04, -232.56, 993.08)"/><circle class="cls-23" cx="248.31" cy="167.07" r="0.35"/><ellipse class="cls-24" cx="850.8" cy="448.39" rx="1.19" ry="0.12" transform="translate(-231.81 998.47) rotate(-87.64)"/><path d="M863.82,450.52c.18-1.35-.86-10-16.69-6.58-17,3.71-14.06,8.43-14,9.32s8.43,1.32,8.83,1.26c0,0-8.14-.06-9.54-.53s-1.8-8.7,14.55-11.28c16.57-2.63,20,6.43,20,7.64s-11.66,3.76-11.66,3.76S863.72,451.29,863.82,450.52Z" transform="translate(-599.55 -281.52)"/><path d="M827.08,456.91c.91-.71,1.82-1.41,2.74-2.09.46-.35.92-.68,1.4-1a8.51,8.51,0,0,1,1.52-.81v0c-.47.31-.93.67-1.39,1s-.94.65-1.42,1l-2.84,1.95Z" transform="translate(-599.55 -281.52)"/><line x1="363.99" y1="163.92" x2="358.92" y2="163.07"/><path d="M963.54,445.46l-2.55-.34a12.8,12.8,0,0,1-2.52-.51v0a12,12,0,0,1,2.55.34l2.53.52Z" transform="translate(-599.55 -281.52)"/><path class="cls-9" d="M918.9,474.13s3,9.65,4.4,14.11,2.57,9,1.53,13.4C923.3,508,914.6,508,914.6,508s10.43,3.71,11.94-1.73,2.7-8,.89-14.76c-.89-3.33-7.41-15.71-8.54-19.42S918.9,474.13,918.9,474.13Z" transform="translate(-599.55 -281.52)"/><path class="cls-25" d="M930.2,509.61s18,16.74,18.16,38.1l-.85-.19s-7.36-22.11-17.64-37.31Z" transform="translate(-599.55 -281.52)"/><path class="cls-25" d="M872.69,505.07s-22.41,11.11-24.47,50C848.22,555,855.06,525.69,872.69,505.07Z" transform="translate(-599.55 -281.52)"/><path class="cls-9" d="M959.81,445.45" transform="translate(-599.55 -281.52)"/><path class="cls-9" d="M919.1,466.22s-8.82-28.31,6.8-37.11c17.29-9.76,31.27-22.08-9.07-6.14C906.77,427,904.49,445,919.1,466.22Z" transform="translate(-599.55 -281.52)"/><path class="cls-9" d="M877,466.22s1.74-33.15-14.08-35.56c-19-2.91-10.37-16.15,9.76-7.07C882.55,428.05,889.39,448.3,877,466.22Z" transform="translate(-599.55 -281.52)"/><path class="cls-26" d="M916.3,457c-1.7-1.48-6.57-2.55-8.66-22.65,0,0-8.38-16.58-24.85-.34,0,0-.51,13.43-1.3,14.89s-2.47,12.7-21.23,20.85c8.45,1.51,19-6.66,22.18-15.1,3.71-9.7,2.56-18.24,5.22-20.35,2.89-2.31,12.74-2.76,14.6-1.31,2.1,1.64,2.84,10,4,13.37,1.46,4.26,5.59,14,13.34,16.86,12.45,4.53,17.16,5.73,26.62,6,9.86.3,20.24-.61,24-1.81,5.2-1.7,9.62-3.92,12.79-8.3,4.52-6.24,5.06-9,4.87-17.67-.3-13.65-.42-12.89-.42-12.89l-1.85,3.77s-.71,14.37-1.24,17.82c-.25,1.58-3.63,7.8-6.57,10.41-1.52,1.34-9.85,4.79-20.75,5.6C945.3,467.08,925,464.63,916.3,457Z" transform="translate(-599.55 -281.52)"/><path class="cls-26" d="M910.19,437.83s1.92-9.8,10.81-14.25,36.56-6.92,49.64-3.87,14.83,15.8,14.83,15.8l-.93-15.12s-21.2-7.87-28.45-5.88S917,419,915.05,421s-6.62,14.82-6,16.47S910.19,437.83,910.19,437.83Z" transform="translate(-599.55 -281.52)"/><path class="cls-27" d="M917.47,472.77s.45,18.78-1.06,23.73a59.35,59.35,0,0,1-4.17,9.78l4.23,1.73a9.78,9.78,0,0,0,8.36-10.18C924.87,488.62,915.21,475.18,917.47,472.77Z" transform="translate(-599.55 -281.52)"/><path class="cls-28" d="M894.23,481c-2,1.2-.94,12.59,1.75,12.59,3,0,5.31-10.66,3.15-12.59C898.28,480.2,895.2,480.37,894.23,481Z" transform="translate(-599.55 -281.52)"/><path class="cls-29" d="M943.31,506.39s3.85,4.49,6.86,7.85c1.66,1.85,3.22,6.39,3.22,6.39s.56-8-3.4-11.33A16.94,16.94,0,0,0,943.31,506.39Z" transform="translate(-599.55 -281.52)"/><path class="cls-29" d="M854.94,505.86s-5.39,5.33-8,10.25a38.87,38.87,0,0,0-2.61,7.19s-1.1-9.06,1.58-13.32C848.3,506.19,854.94,505.86,854.94,505.86Z" transform="translate(-599.55 -281.52)"/><path class="cls-9" d="M871.13,576.47s17.77,0,19.47-1.72,24.24-2.84,26.94-.89,13.41,5.3,16.45,4.35,12.31-9.89,7-11.7S889.32,563,886.22,564,867.73,574.66,871.13,576.47Z" transform="translate(-599.55 -281.52)"/><g class="cls-30"><path class="cls-9" d="M988.6,446.4s-5.06,16-11.85,18.22-26.94,77.32-27.85,89.21S891.26,563,891.26,563s-14.58,13.58-13.79,14,29.35-5.4,34.77-3.94,19.8,7.54,22.06,7.16c2-.34-13.77,5.79-5.95,21.58-4.11,1.71-8.62,6-28.33,7.69-7.89.66-21.7-.95-29.38,0-11.9,1.48,13.19,20.31,51.82,7.18l.53.11a90.85,90.85,0,0,0,11-4.68l.18-.07-.18.07c18.89-9.49,35.38-25.76,46.38-45.8,0,0,4.81-14.23,7.81-26.52l2.59-14.2c18.73,4.85,11.83-26.66,14.63-38.15,3.91-16.08,10.27-27.4-2.56-40.93-2.9-3.05-10,4.08-10,4.08Z" transform="translate(-599.55 -281.52)"/><path class="cls-9" d="M938.66,610.15l4.47-1.92Z" transform="translate(-599.55 -281.52)"/><path class="cls-9" d="M943.13,608.23l.82-.35Z" transform="translate(-599.55 -281.52)"/><path class="cls-9" d="M937,610.87l1.68-.72Z" transform="translate(-599.55 -281.52)"/><path class="cls-9" d="M934.21,612.07l.5-.22Z" transform="translate(-599.55 -281.52)"/><path class="cls-9" d="M944,607.88l.59-.26Z" transform="translate(-599.55 -281.52)"/><path class="cls-9" d="M936.67,611l.31-.14Z" transform="translate(-599.55 -281.52)"/><path class="cls-9" d="M934.71,611.85l2-.84Z" transform="translate(-599.55 -281.52)"/><path class="cls-9" d="M944.54,607.62,946,607Z" transform="translate(-599.55 -281.52)"/><path class="cls-9" d="M946,607l1.09-.47Z" transform="translate(-599.55 -281.52)"/><path class="cls-9" d="M950.83,604.92Z" transform="translate(-599.55 -281.52)"/><path class="cls-9" d="M950.49,605.07l.1-.05Z" transform="translate(-599.55 -281.52)"/><path class="cls-9" d="M950.59,605l.24-.1Z" transform="translate(-599.55 -281.52)"/><path class="cls-9" d="M948.67,605.85l1.82-.78Z" transform="translate(-599.55 -281.52)"/><path class="cls-9" d="M947.08,606.53l1.59-.68Z" transform="translate(-599.55 -281.52)"/></g><path class="cls-27" d="M898,506.37c0-.85-2.72-1.31-3-.51-2.27,6.55-2.89,21.33-2.62,22.8.3,1.64,4.8,2.45,6.46,2.41.4,0,2.35-1,2.36-1.38Z" transform="translate(-599.55 -281.52)"/><path class="cls-27" d="M909.68,507.07c-.37-.5-5-2.26-5-.74,0,6.77,5,21.38,5.23,22.33.39,1.29,5.74,1.62,7.14,3.66C918.14,533.93,915,514.52,909.68,507.07Z" transform="translate(-599.55 -281.52)"/><path class="cls-11" d="M835.17,680.3c.68-6.22-3.74-22.3-5-24.22-.72-1.11-.65-5.88-2.44-9.76-6.1,10.18-7.08,10.08-7.08,10.08,6.22,41.75,12.55,48.31,13.5,49.42.28.32,5.24,2.16,12.11,4.58C842.12,701.51,834.68,684.81,835.17,680.3Z" transform="translate(-599.55 -281.52)"/><path class="cls-31" d="M902.12,504.77c.41.21,6.85,24.5,5.46,24.64C905.69,529.6,901.27,505.44,902.12,504.77Z" transform="translate(-599.55 -281.52)"/><path class="cls-31" d="M894.17,503.78c-.51.14-3.43,27.82-3.77,27.84C889.54,531.66,888.59,507,894.17,503.78Z" transform="translate(-599.55 -281.52)"/><path class="cls-9" d="M881.21,499.37c-3.22,2.19-5.48,9.54-.57,8.65,1.65-.3,15.89-2.26,18.49-2.3s14.73,1.32,16.25,2c4.73,2.08,3.77-6.94.13-10-2.66-2.2-10.24-4.81-11.44,0-.71,2.89-10.66,1-11.54-.68C891.49,495.14,884.87,496.88,881.21,499.37Z" transform="translate(-599.55 -281.52)"/><path class="cls-9" d="M877.63,473.47c.78.16-6.48,21.65-9.68,27.15-2.2,3.77,2.09,7.76,4.74,8.14,1.9.27,10,.28,10.33-1.69.45,1.53-9.45,2.05-10.33-6.11S878.93,482.91,877.63,473.47Z" transform="translate(-599.55 -281.52)"/><path class="cls-32" d="M794.5,676.17a8.42,8.42,0,1,0,8.41,8.41A8.41,8.41,0,0,0,794.5,676.17Z" transform="translate(-599.55 -281.52)"/><path class="cls-33" d="M794.5,676.17a8.42,8.42,0,1,0,8.41,8.41A8.41,8.41,0,0,0,794.5,676.17Zm0,15.56a7.15,7.15,0,1,1,7.15-7.15A7.15,7.15,0,0,1,794.5,691.73Z" transform="translate(-599.55 -281.52)"/><path class="cls-33" d="M794.5,677.43a7.15,7.15,0,1,0,7.15,7.15A7.15,7.15,0,0,0,794.5,677.43Zm0,12a4.83,4.83,0,1,1,4.83-4.83A4.83,4.83,0,0,1,794.5,689.41Z" transform="translate(-599.55 -281.52)"/><path class="cls-34" d="M794.5,677.43a7.15,7.15,0,1,0,7.15,7.15A7.15,7.15,0,0,0,794.5,677.43Zm0,12a4.83,4.83,0,1,1,4.83-4.83A4.83,4.83,0,0,1,794.5,689.41Z" transform="translate(-599.55 -281.52)"/><path class="cls-33" d="M794.5,679.75a4.83,4.83,0,1,0,4.83,4.83A4.83,4.83,0,0,0,794.5,679.75Zm0,8.62a3.79,3.79,0,1,1,3.79-3.79A3.79,3.79,0,0,1,794.5,688.37Z" transform="translate(-599.55 -281.52)"/><path class="cls-35" d="M788.61,684.58a5.25,5.25,0,0,1-.23-3,4.39,4.39,0,0,1,1.71-2.62,5.71,5.71,0,0,1,3-.89,12.29,12.29,0,0,1,1.49.11c.48.11,1,.22,1.43.37-.5.07-1,.09-1.45.12l-1.39.17a7,7,0,0,0-2.46.94,4.34,4.34,0,0,0-1.54,2A9.32,9.32,0,0,0,788.61,684.58Z" transform="translate(-599.55 -281.52)"/><path class="cls-36" d="M1015.58,671.86s26.87-21.39,28.38-23.37S1069,623.71,1069,622.81s1.51,2.86,1.51,2.86l-21.89,25.67s-17.36,26.56-19.17,32,0,20.52,0,20.52-15.55-6.94-16-7.09S1015.58,671.86,1015.58,671.86Z" transform="translate(-599.55 -281.52)"/><path class="cls-32" d="M1007,669.46a8.42,8.42,0,1,0,8.41,8.41A8.41,8.41,0,0,0,1007,669.46Z" transform="translate(-599.55 -281.52)"/><path class="cls-33" d="M1007,669.46a8.42,8.42,0,1,0,8.41,8.41A8.41,8.41,0,0,0,1007,669.46Zm0,15.56a7.15,7.15,0,1,1,7.15-7.15A7.15,7.15,0,0,1,1007,685Z" transform="translate(-599.55 -281.52)"/><path class="cls-33" d="M1007,670.72a7.15,7.15,0,1,0,7.15,7.15A7.15,7.15,0,0,0,1007,670.72Zm0,12a4.83,4.83,0,1,1,4.83-4.83A4.83,4.83,0,0,1,1007,682.7Z" transform="translate(-599.55 -281.52)"/><path class="cls-34" d="M1007,670.72a7.15,7.15,0,1,0,7.15,7.15A7.15,7.15,0,0,0,1007,670.72Zm0,12a4.83,4.83,0,1,1,4.83-4.83A4.83,4.83,0,0,1,1007,682.7Z" transform="translate(-599.55 -281.52)"/><path class="cls-33" d="M1007,673a4.83,4.83,0,1,0,4.83,4.83A4.83,4.83,0,0,0,1007,673Zm0,8.62a3.79,3.79,0,1,1,3.79-3.79A3.79,3.79,0,0,1,1007,681.66Z" transform="translate(-599.55 -281.52)"/><path class="cls-35" d="M1001.1,677.87a5.25,5.25,0,0,1-.23-3,4.39,4.39,0,0,1,1.71-2.62,5.81,5.81,0,0,1,3-.89,12.29,12.29,0,0,1,1.49.11c.48.11,1,.22,1.43.37-.5.07-1,.09-1.45.12l-1.39.17a7,7,0,0,0-2.46.94,4.34,4.34,0,0,0-1.54,2A9,9,0,0,0,1001.1,677.87Z" transform="translate(-599.55 -281.52)"/><path class="cls-37" d="M1073.09,627.64s-23.55,34-26.41,40S1032.34,690.73,1032,693s-18.62,30.49-18.62,30.49l-19,5.74s-.24-51.52,3.38-52,29.43-15.6,34-20.88,34.72-40.31,37.14-41.66S1073.09,627.64,1073.09,627.64Z" transform="translate(-599.55 -281.52)"/><path class="cls-38" d="M793.36,479.9c0-5.17-21.51-24.9-22.56,2.94-.8,21.21,9.66,22.29,13.16,30.68a98.28,98.28,0,0,1,6.11,20c1.7,8.61,14.95,15.28,13.59,0a41.68,41.68,0,0,0-3.17-12.34" transform="translate(-599.55 -281.52)"/><path class="cls-38" d="M992.27,465.75c-4.53-12.68,9.84-33.06,17-8.15,4.11,14.35-3.56,22.52-4.3,33.06-.34,4.86-1.19,17.94-.82,22.21,1,12-16.39,24-16.39.09" transform="translate(-599.55 -281.52)"/><path class="cls-38" d="M803.13,529.85c-1.44-3.46,4.21,17.88,17.28,41.64,6.8,12.34,37.25,52.07,80,49.81s77.89-41.11,82.3-62.83c1-4.64,8.27-22,7.76-33.69" transform="translate(-599.55 -281.52)"/><path class="cls-39" d="M877.75,475a10.86,10.86,0,0,1-.09,5.16c-.39,1.69-.9,3.35-1.42,5a72.83,72.83,0,0,0-2.78,9.83,17.08,17.08,0,0,0-.18,5,12,12,0,0,0,1.54,4.69,6.3,6.3,0,0,0,3.8,2.94,8.13,8.13,0,0,0,5-.45,7.89,7.89,0,0,1-5.08.9,6.86,6.86,0,0,1-4.32-3,14.22,14.22,0,0,1-1.71-10.25,54.59,54.59,0,0,1,3-9.93c.61-1.61,1.21-3.21,1.67-4.85A11.52,11.52,0,0,0,877.75,475Z" transform="translate(-599.55 -281.52)"/><path class="cls-39" d="M913,507a4.67,4.67,0,0,0,2.5.73,8.42,8.42,0,0,0,6.8-3,9.32,9.32,0,0,0,1.88-4.7,21.51,21.51,0,0,0,.17-5.26,40.27,40.27,0,0,0-2.6-10.33c-.61-1.68-1.24-3.36-1.8-5.08a16.48,16.48,0,0,1-1-5.28,17.56,17.56,0,0,0,1.28,5.19c.63,1.68,1.35,3.32,2,5a40.65,40.65,0,0,1,2.93,10.43,21.4,21.4,0,0,1-.08,5.48,13.78,13.78,0,0,1-.62,2.71,8.57,8.57,0,0,1-1.4,2.48,8,8,0,0,1-4.83,2.77,8.37,8.37,0,0,1-2.78,0A4.43,4.43,0,0,1,913,507Z" transform="translate(-599.55 -281.52)"/><path class="cls-40" d="M888.92,505.36c2-.32,6.11-1.83,10.05-1.66s6.88,1.5,8.68,1.23,3.83-3.58,3-5.7c-1-2.55-3.33-3.28-5.27.79-1.27,2.66-3.05,3.2-6.65,3.2s-6.73-.09-7.29-3.31c-.71-4-3.65-2.87-4.31.17C886.67,502.08,885.59,505.91,888.92,505.36Z" transform="translate(-599.55 -281.52)"/><g class="cls-41"><path class="cls-39" d="M868.41,508a44.6,44.6,0,0,0-8.32,8.93,53.87,53.87,0,0,0-5.94,10.61c-.41.93-.74,1.89-1.11,2.83-.18.48-.37,1-.53,1.43l-.43,1.46c-.28,1-.59,2-.85,2.93s-.42,2-.65,3l-.33,1.49L850,542.2l-.43,3c-.26,2-.32,4.08-.53,6.12,0-1,0-2.05,0-3.07s0-2.06.06-3.09l.29-3.07.15-1.54.28-1.52c.17-1,.36-2,.56-3s.54-2,.81-3l.42-1.49c.16-.49.35-1,.52-1.46.37-1,.69-2,1.09-2.9a50.55,50.55,0,0,1,6.25-10.68c.61-.83,1.3-1.61,2-2.38s1.42-1.5,2.13-2.24A33,33,0,0,1,868.41,508Z" transform="translate(-599.55 -281.52)"/></g><g class="cls-41"><path class="cls-39" d="M930.6,510.2a2.19,2.19,0,0,1-.43-.55s0-.08,0-.08h.07l.08,0,.15.1a2.83,2.83,0,0,1,.28.2c.37.29.71.6,1,.91.67.63,1.32,1.29,1.95,2q1.86,2,3.52,4.25a59.67,59.67,0,0,1,5.81,9.39A52.32,52.32,0,0,1,947,536.79a50.32,50.32,0,0,1,1,5.42,42.27,42.27,0,0,1,.32,5.5A56.19,56.19,0,0,0,946.25,537a65.34,65.34,0,0,0-4-10.11,78.4,78.4,0,0,0-5.54-9.39c-1-1.51-2.11-3-3.27-4.38-.57-.72-1.15-1.42-1.76-2.09-.31-.34-.63-.67-.95-1l-.25-.22-.14-.11s-.11-.05-.07-.06A2.65,2.65,0,0,0,930.6,510.2Z" transform="translate(-599.55 -281.52)"/></g><path class="cls-39" d="M868.84,581.63a18.21,18.21,0,0,0,7.75-1.43,61.48,61.48,0,0,1,7.54-2.8,75.2,75.2,0,0,1,15.81-2.93,61.84,61.84,0,0,1,16.07.83l2,.4c.65.15,1.29.34,1.94.51s1.31.33,1.94.55l1.9.66a34.64,34.64,0,0,1,3.72,1.54c.6.28,1.19.62,1.8.85a2.58,2.58,0,0,0,1.92-.17,2.59,2.59,0,0,1-2,.31c-.65-.2-1.25-.5-1.87-.75a33.46,33.46,0,0,0-3.76-1.31l-1.91-.59c-.63-.2-1.29-.31-1.93-.48s-1.29-.31-1.94-.44l-2-.32a65.3,65.3,0,0,0-15.86-.6,80.24,80.24,0,0,0-15.68,2.68,61.43,61.43,0,0,0-7.56,2.51,14.56,14.56,0,0,1-3.93,1A19.91,19.91,0,0,1,868.84,581.63Z" transform="translate(-599.55 -281.52)"/><line class="cls-38" x1="233.93" y1="324.12" x2="233.88" y2="307.22"/><path class="cls-38" d="M978.21,570.4s-.34,14.21.74,23.53l-.5,35.58" transform="translate(-599.55 -281.52)"/><path d="M869.47,419.68l-9.59-1.7s3.17,3,2.72,2.72S849.54,418,849.54,418l4.53,2.74-17.2-1.37,3.77,1.37-10.19,1.83,3.09,1.09-16.15,4.77,6.27.62-11.25,7.16h3L814,438l2.56-.68-1,1.23,3.7-2.19,5.5-.88,10.12-6.21-3,3.14,9.66-5.25-.07,2,12.3-2.79-1.13,1h11.62l6.57-1.64L868,424.18l2.3-.95-1.63-.48,1.63-1Z" transform="translate(-599.55 -281.52)"/><path d="M917.3,417.08l11.17-3.8-.43,1.9,7-3.36-1.11,1.86,11.51-5.74-.51,1.78,10.66-1.78-3.15,2.1,12.78-.64s-3.06,1.21-2.81,1.21,6.48,1.05,6.48,1.05L968.2,413l1.87,1.22-1.79.48L972,416l-6.31,1.05v1.46l-6.65-1.86.85,1.86-6.14-2.35-1.45,2.35h-5.8l-4.69-1,.94,1.77-6.56-1,2.13,1-9.47.73.43,1.05-7.25.49-4.35,1,1.28-2-3.15.32L917,419.1s-3.75-.4-3.49-.56S917.3,417.08,917.3,417.08Z" transform="translate(-599.55 -281.52)"/><path class="cls-42" d="M843.41,418.68s-34.52,3.06-34.18,4.87-4.76,22.19-3.74,24,3.74,16.07,4.87,16.53,14.49,9.5,24.79,7.69c0,0,45.62,5.44,47.66-27,0,0-2.72-17.21,13-15.51s13,4.19,13.92,15.73,15.17,21.4,33.06,22,43.51,5.44,43.25-29.66c-.23-29.78-14.83-21.17-32.27-21.29s-32.15,2.49-46.53,9.29c-1.76.83-24.9,1.81-26.83.11S860.85,415.51,843.41,418.68Z" transform="translate(-599.55 -281.52)"/><path class="cls-42" d="M843.41,418.68,840,419l-14,52.14a22.48,22.48,0,0,0,8.8.7l12.1-53.63C845.73,418.31,844.57,418.47,843.41,418.68Z" transform="translate(-599.55 -281.52)"/><path class="cls-43" d="M826.54,420.39l-9,47.57a47.29,47.29,0,0,0,8.44,3.17L840,419C836.79,419.3,831.68,419.8,826.54,420.39Z" transform="translate(-599.55 -281.52)"/><path class="cls-43" d="M846.88,418.2l-12.1,53.63.37-.06a64.93,64.93,0,0,0,7.22.34l13.43-54A51.24,51.24,0,0,0,846.88,418.2Z" transform="translate(-599.55 -281.52)"/><path class="cls-43" d="M925.47,418.87l-6.4,40.58a35.46,35.46,0,0,0,5.16,3.06l8.44-45.07Q929,418,925.47,418.87Z" transform="translate(-599.55 -281.52)"/><path d="M994,417.46c-.13-1.22-4.55-3-4.55-3a6.57,6.57,0,0,1-5.89.75c-21.66-7-63.88,1-78.2,7.34-5,2.19-21.79,2-28.32-.54-30.47-12-71.36,1.39-71.36,1.39l-8.44.85s-1.9,11.49-1.15,11.64,7.65,4.38,7.65,8.61c0,9.1-5.83,28.61,39.07,28.61,41.09,0,39.9-25.88,42.19-38.12.75-4,19.34-5.62,19.92-1.36,3.83,28,17,35,49.06,35,27.34,0,33.73-15.11,32.6-28.21-.24-2.83-.3-8.3,1.13-11.32s5.21-2.11,5.21-2.11S994.15,418.67,994,417.46ZM841.19,470.6c-19.07,0-34.7-1.75-34.7-25.64,0-21.12,4.64-23.95,37.81-23.95,31.47,0,36.91,4.87,36.91,22.25C881.21,467,856.92,470.6,841.19,470.6ZM950,466.41c-15.74,0-39.85-4.64-39.85-24.4,0-17.37,7.52-24.67,39-24.67,35.35,0,35.35,5.09,35.35,22.86C984.54,464.1,969.1,466.41,950,466.41Z" transform="translate(-599.55 -281.52)"/><path class="cls-38" d="M978.38,582.05s14.56-8.3,18.18,10.72c0,0-2.11.6,1.66,0s17.36-16.45,21.59,7.4c0,0,2.26,3.92,8.75,0s5.14-12.23,23.1-7.4,24,18.11,23.09,33.36c0,0,82.12,16.9,86.64,22s14.49-.91,19.17,10c0,0,6,1.66,8.61,6.79,0,0,22,24.75,24.45,30.19s47.55,57.81,49.66,62.94,24.3,27.78,26.87,34.87,17.36,19.62,20.07,25.81,24.16,34.42,26,39.25,13.28,17.39,13.28,22.81h-749c3.32-5,14.49-43.34,14.49-43.34l6.94-7.4c-2-16.75,10-32.45,10-32.45.31-16,23.25-40.6,23.25-40.6,5.89-36.38,19-38.65,19-38.65l-1.06-3c40.61-37.44,86.79-51.93,86.79-51.93-2-.15-3.92-16.6-2-20.68s10.87-4.68,10.87-4.68c-.15-3.62,9.21-16.66,9.21-16.66s30-21.22,32.3-21.22,23,4.52,23,4.52,6.78,21.74,5.12,24.15-17.21,24.31-18,29.44,8.62,43,12.23,45.43S892.56,728,894.07,728s43.32-45.13,69.29-50.11c1.2-.6,19.62-19.62,18.71-33.36,0,0,3.72-41.72.31-46.19S977.62,586.58,978.38,582.05Z" transform="translate(-599.55 -281.52)"/><path class="cls-38" d="M837.92,628.24s-14.79,27.47-17,27.93,8,46.94,13.73,50,56,19.62,56,19.62-34.72-42-36.68-48.75S835.81,652.09,837.92,628.24Z" transform="translate(-599.55 -281.52)"/><path class="cls-38" d="M940,688.32s39.25-55.55,40.15-62.65C980.11,625.67,994.9,671.11,940,688.32Z" transform="translate(-599.55 -281.52)"/><path class="cls-44" d="M799.88,608.62s-8.54,53.13-6.23,55.7S779,675,778.41,679.26s-6.45,9.51-6,10.41-12.07-25.89-11.47-27.62-5.89-13.88-.75-19.47,9.66-.75,9.66-.75,8.75-19.93,10-19.93S799.88,608.62,799.88,608.62Z" transform="translate(-599.55 -281.52)"/><path class="cls-39" d="M997.23,461.84s1.12-13.57,6.45-6.11c7.35,10.29-3.17,25.27-3.23,24.06Z" transform="translate(-599.55 -281.52)"/><path class="cls-39" d="M784.7,478.66s-10.19-9.29-9.91,4.13S782,501.64,782,501.64,780.17,482,784.7,478.66Z" transform="translate(-599.55 -281.52)"/><path class="cls-39" d="M792.79,508c.2,0-2-10.33-1.41-11.3.33-.52-4-4.72-4.13-4.65C787,492.31,787,507.22,792.79,508Z" transform="translate(-599.55 -281.52)"/><path d="M829.92,446.4c-.06-.09.06-.18.12-.25a2.54,2.54,0,0,1,.24-.2l.5-.35c.35-.22.7-.42,1.06-.62.72-.39,1.46-.76,2.21-1.1,1.5-.66,3-1.25,4.6-1.76a48.54,48.54,0,0,1,9.61-2.13,36.78,36.78,0,0,1,9.83.22,27.06,27.06,0,0,1,9.25,3.23,29.31,29.31,0,0,0-9.28-3.07,36.81,36.81,0,0,0-9.78-.13,48.37,48.37,0,0,0-9.58,2,47.08,47.08,0,0,0-4.6,1.72c-.76.32-1.5.66-2.23,1-.36.19-.72.39-1.07.6a4.52,4.52,0,0,0-.51.34,1.55,1.55,0,0,0-.24.19C830,446.22,829.86,446.31,829.92,446.4Z" transform="translate(-599.55 -281.52)"/><path d="M959.81,439.39c.09-.09,0-.22-.06-.29a1.31,1.31,0,0,0-.24-.23,5.14,5.14,0,0,0-.54-.37,12.74,12.74,0,0,0-1.15-.62c-.79-.39-1.6-.73-2.42-1a45.35,45.35,0,0,0-5-1.58A46.64,46.64,0,0,0,940,433.8a36.74,36.74,0,0,0-10.4,1.09,30.4,30.4,0,0,0-9.52,4.33,28.67,28.67,0,0,1,9.47-4.49A36.48,36.48,0,0,1,940,433.55a46.94,46.94,0,0,1,10.41,1.55,43.71,43.71,0,0,1,5,1.63c.81.33,1.62.69,2.4,1.09.39.2.77.42,1.14.65a5.17,5.17,0,0,1,.53.39,1.75,1.75,0,0,1,.24.23C959.82,439.17,959.9,439.3,959.81,439.39Z" transform="translate(-599.55 -281.52)"/><path class="cls-45" d="M1012.26,681.43s-2.56-14.95-10.26-3.78-1.66,135-1.66,135l15.1,69.14h6.19s-16.69-102.31-17.22-112.4C1003.15,745.07,1009.78,680.72,1012.26,681.43Z" transform="translate(-599.55 -281.52)"/><path class="cls-36" d="M1021.63,881.83S1006,787.24,1005.3,777.15c-3-46.53,4.48-96.43,7-95.72a20.75,20.75,0,0,0-1.47-4.7,15.83,15.83,0,0,0-2.91,5.9c-1,4.53-6.34,51.48-6.18,56.15s1.2,39.8,1.81,44.63,12.31,71.15,12.46,73.71,3.69,24.71,3.69,24.71Z" transform="translate(-599.55 -281.52)"/><path class="cls-46" d="M1003.21,809.38s-2.25-35.88-2.55-41-.56-31.09-.56-31.09,2.27-37.14,2.57-42.12,3.77-12.83,3.31-14.94-2.11-2-2.11-2a15.7,15.7,0,0,0-1.18-1.06l-.32.45c-7.7,11.17-3.39,133.53-3.39,133.53l16.83,70.65h2.11l-3.7-12.18Z" transform="translate(-599.55 -281.52)"/><path class="cls-32" d="M1005.3,777.15h0c-.64-9.9-.81-20-.65-29.65,1.33-28.63,5.7-66.59,7.61-66.07h0l0-.1v0s0-.06,0-.1v-.06s0-.08,0-.14v0c0-.18-.09-.42-.16-.7v0c0-.09,0-.18-.07-.27l0-.08-.08-.29,0-.08c-.13-.45-.28-.93-.46-1.43,0-.05,0-.09-.05-.13l-.12-.31-.06-.15-.12-.3-.07-.14c-1.46-3.3-4.24-6.2-8.93.61-2.25,3.27-3.33,16.15-3.72,32.76-1.45,39.79.7,100.77.7,100.77l12.39,52,4.07,18.61h6.19S1008.85,803.5,1005.3,777.15Z" transform="translate(-599.55 -281.52)"/><path class="cls-45" d="M799.88,688.32s-2.56-15-10.26-3.78-5.74,139.17-5.74,139.17l-1.5,57.08h6.18s4-94.38,3.48-104.47C790.77,752,797.4,687.61,799.88,688.32Z" transform="translate(-599.55 -281.52)"/><path class="cls-36" d="M788.56,880.79s4-94.38,3.48-104.47c-1.27-24.36,5.36-88.71,7.84-88a21,21,0,0,0-1.46-4.7,15.68,15.68,0,0,0-2.91,5.9c-1.06,4.53-6.34,51.48-6.19,56.15s-1.51,40.46-.91,45.29-2,70.49-1.81,73,0,16.78,0,16.78Z" transform="translate(-599.55 -281.52)"/><path class="cls-46" d="M786,815.71s.34-35.32,0-40.45,1.66-31.09,1.66-31.09S790,707,790.29,702.05s3.77-12.83,3.32-14.94-2.11-2-2.11-2-.49-.49-1.18-1.06l-.33.45c-7.7,11.17-5.74,139.17-5.74,139.17l-1.51,57.08h2.12v-4.25Z" transform="translate(-599.55 -281.52)"/><path class="cls-32" d="M799.88,688.32v-.12l0-.1V688s0-.08,0-.14v0c0-.18-.09-.42-.16-.7v0a2.68,2.68,0,0,0-.07-.27l0-.08c0-.1,0-.19-.08-.29l0-.08c-.13-.45-.28-.93-.46-1.43,0-.05,0-.09-.05-.13l-.11-.3c0-.06,0-.11-.07-.16l-.12-.3a1,1,0,0,0-.07-.15c-1.46-3.3-4.24-6.18-8.93.62-7.7,11.17-5.74,139.17-5.74,139.17l-1.5,57.08h6.18v-.39c0-.68.1-2.29.19-4.64q.06-1.25.12-2.76c0-.62.05-1.28.08-2,0-.3,0-.6,0-.91,0-1.12.09-2.31.14-3.56q0-.7.06-1.44c.1-2.33.2-4.87.31-7.56,0-.61.05-1.24.07-1.87l.09-2.24c0-.63.05-1.27.08-1.92,0-1.5.12-3,.18-4.6,0-1.28.1-2.58.15-3.89.07-1.79.14-3.61.21-5.44,0-.4,0-.81,0-1.21,0-1.2.09-2.42.14-3.63,0-1,.08-2,.11-3,.36-9.68.71-19.42,1-27.93l.06-1.77c0-.85,0-1.68.07-2.49,0-1,.07-2.07.09-3.07.05-1.56.09-3.06.12-4.48.05-1.81.08-3.5.11-5,0-.89,0-1.74,0-2.52s0-1.62,0-2.32v-1c0-1.24,0-2.2,0-2.83-.1-1.91-.15-4.05-.16-6.39-.1-27.63,5.72-82.26,8-81.61Z" transform="translate(-599.55 -281.52)"/><path class="cls-46" d="M698.9,813.45c1.06-3.17-.75-50.11-1.2-50.11s-3.48-29.89-1.82-35,7.4-33.51,8.46-33.66,7.39-4.23,7.39,0,6.34,34.41,12.23,40,4.38-4,4.38-4,10-54.23,11.92-54.53-5.73,44.23-5.73,44.23-20,92.23-20.83,113c-.16,3.63-4.68,42.85-3.78,45.14s5.44.6,5.44.6,9-83.93,10.71-88.76,17.81-115.17,23.25-117.13,11.62-3.62,11.62-3.62l-.45-6-1.23.05c-5.6,1.87-48.31,16.82-86.17,51.73l1.06,3s-13.13,2.27-19,38.65c0,0-22.94,24.6-23.25,40.6,0,0-11.92,15.7-10,32.45l-6.94,7.4s-11.17,38.38-14.49,43.34h58.15c-4.53-9.31-20.7-42.63-20.57-43.79.15-1.36-6.94-17.66-6.94-17.66s6.49-5.59,9.36-2.42,20.68,32.65,20.68,32.65S674.3,867,676.56,867.34s3.32-12.49.46-14.65-20.83-26-20.83-29.28-16-28.83-13.74-36.23,3.47-8.75,5.13-8.3,14,29,14.8,30.19,22,40.45,23.24,40.3-1.66-16.3-1.66-16.3-25.36-56.9-24.3-65.21,2.72-15.54,3.62-15.69S691.66,815,691.66,815l.9-14s-7.24-25.36-7.09-29.28-11.93-39.55-11-44.08,6-4.22,7.7,0,8.9,28.08,8.9,28.08,2.42,32.75,2.42,37.28v87.87h6.19S697.85,816.62,698.9,813.45Z" transform="translate(-599.55 -281.52)"/><path class="cls-36" d="M666,880.79l-11.78-21.3s-10.11-14.49-10.41-16-7.7-19.78-7.7-19.78a1.83,1.83,0,0,1,2.42-1.05c1.81.6,13.35,18.86,13.35,18.86S667.81,864.92,669,866s6.94,4.68,8.75,4.37,3.62-13.88,3.62-15.54-13.28-16-13.28-16-8.15-11.17-9.36-13-4.37-14.34-5.73-16.91-8.91-17.21-8-18.41a30.51,30.51,0,0,0,2.26-5.44l11.47,24.76,11.32,24.6s11.78,18,13,18.11a5.1,5.1,0,0,0,4.83-3c1.06-2.41-1-15.09-1-15.09l-10.72-26s-14-35.78-14-37.59,2.94-8.15,2.94-8.15,15.85,32.45,15.62,34.87,9.89,19.77,10.34,22.64,0,60.34,0,60.34Z" transform="translate(-599.55 -281.52)"/><path class="cls-36" d="M684.87,761.22s-7.25-25.36-7.1-26,3.77-.91,4.68,0,6.19,21.89,6.19,21.89L692.11,792Z" transform="translate(-599.55 -281.52)"/><path class="cls-36" d="M701.77,880.79V800.62C701.77,799,703,773.9,703,770s-1.21-23.7-1.21-23.7.3-21.44,1.21-23.1,3-14,3-14,5.73,5.43,6.49,6.64,10.41,29,11.92,29.13.46,3.62,0,4.38-15.09,61.58-13.73,64.3-3,51-3,51l-1.06,16.17Z" transform="translate(-599.55 -281.52)"/><path class="cls-36" d="M719.43,880.79l7.85-63.72,10.72-64,8-46.19s4.68-26.26,5.58-27.62,7.1-6.19,8.76-4.83,4.83,11.47,6,13,3.47,3.77,2.71,7.4l-.75,3.62-5.29,19.47s-8.45,22-7.09,24.91,3.32,29.36,3.32,29.36-4.68,30.41-4.53,31.47-6.94,33.51-5.88,37.88,1.81,35.17,1.81,35.17l-.3,4.1Z" transform="translate(-599.55 -281.52)"/><path class="cls-36" d="M807.13,847.41s3.32-19.92,4.08-22,3.77-23.54,6.18-24.15,7.7-2.41,7.7-2.41l2.27,18.41S815,834.28,814.83,836.54s-.3,14.19-.45,15.55-9.36,6.79-8.91,1.51S807.13,847.41,807.13,847.41Z" transform="translate(-599.55 -281.52)"/><path class="cls-47" d="M1173.62,879.56s12-27.47,9.85-36.38-9.55-9-9.85-6.79-2.15,12.23-2.15,12.23.27-46.49,0-48.61-14.45-5.22-14.45-5.22.15,30.13,0,36.32-.76,22.19-.76,22.19-23.09-126-19.17-155c0,0-10.32-23.4-7.12-25.51s18.59,1.31,21.91-2.44,11-19.9,11-19.9-59-17.81-62-15.55-9.21,21-7.7,24,9.51,16.76,11.32,25.36,11.62,99.32,13.28,100.23,14,69.13,16,73.51-2.72,21.58-2.72,21.58Z" transform="translate(-599.55 -281.52)"/><path class="cls-36" d="M897.54,792s-2.86,16-5.58,17.06-10.57,1.51-11.77,7.1-7.1,13.43-7.1,13.43,2.87,15.09,0,16.6-9.36,7.55-9.36,7.55l5.44,11s20.83-2.87,23.54-8.15,8.76-31.38,11.48-34.86,10.56-14.2,12.37-17.22,0-16.15,0-16.15Z" transform="translate(-599.55 -281.52)"/><path class="cls-48" d="M1216.64,707.18s-3,38-5.74,43-16,46.64-20.07,50-15.25,21.28-13.13-4.23,1.52-16.42-.27-19.47-1.55,16.25-3.66,16.2-10.56-16.35-8.3-22.39,15.09-54.94,15.4-60.53,4.27-16.15,4.27-16.15-10.31-5.13-9.86-6.79,11.77-19.17,11.77-19.17Z" transform="translate(-599.55 -281.52)"/><path class="cls-36" d="M1006.29,622.67s-19.39,19-17.58,21.87,4.53,8.61,6.65,8,17.35-18.71,17.35-18.71,18.42-24.16,17.21-25.82.06-7.69.06-7.69-9.57,5.58-9.87,2.71Z" transform="translate(-599.55 -281.52)"/><path class="cls-36" d="M1000,594.88s3.74,7.55,1.72,10.27-5.5,17.52-5.5,17.52l-3.62,3.78Z" transform="translate(-599.55 -281.52)"/><path class="cls-36" d="M823.13,609.67s-15.47,11-16.64,16-2.23,34.58-1,37.6,15.4,19.16,17.66,20.82,4.08,13.13,4.08,13.13S805.51,675,803.76,669.6s-4.63-30.49-3.88-37.59,3.93-20.83,7.25-23.09,10.41-4.53,12.53-4.08S823.73,607.41,823.13,609.67Z" transform="translate(-599.55 -281.52)"/><path class="cls-36" d="M831.43,621.39s-8.9,12.89-12.83,14.85-10,1.28-10.56,4.42,0,20.94,0,20.94l15.09,18.8s-6.64-24.75-5.59-27.81,15.59-16.35,15.72-19.22S831.43,621.39,831.43,621.39Z" transform="translate(-599.55 -281.52)"/><path class="cls-36" d="M860,746.73a28.56,28.56,0,0,1-25.36,0l-8.6-3S853,747.94,860,746.73Z" transform="translate(-599.55 -281.52)"/><path class="cls-36" d="M888.64,733.45l-2.42,3.47s-14.7-7.37-17.38-7.69-20.2-.91-21.86-1.52-19.77-8.6-19.77-8.6-15.7-2.57-15.7-1.81-10.72-13.44-10.72-13.44l.6-10.86h4.06l1.38,10.86s3.32,6.95,5.58,8,14.8,3.8,16.76,4.47,16.75,8.21,18,8.21,19.71,1,21.71,1S888.64,733.45,888.64,733.45Z" transform="translate(-599.55 -281.52)"/><path class="cls-49" d="M878.38,758.2s-8.91,6-8.91,10.42,4.45,12,4.45,12,22.27-10.31,26.79-12.88,31.55-4.53,34.72-4.37,19-11.48,19-11.48,24.3-16,27.47-14.94,10.72,7.55,10.72,7.55l4.07-35.32Z" transform="translate(-599.55 -281.52)"/><path class="cls-36" d="M878.38,755s43.32,1.51,47.54-1.2,28.08-18,32.91-19.63S975,724.69,975,724.69l19.62-3.17s1.82-41.85,3.18-44.32c0,0-26.42,9.76-28.84,11.87s-46,29.59-47.09,31.1S878.38,755,878.38,755Z" transform="translate(-599.55 -281.52)"/><path class="cls-50" d="M961.52,750.2S966,774,936.79,795.64c0,0-2.11,10.56-3.7,14.64s-9.13,18-5.51,23.24,9.1,8.31,11.87,7.4S954,833.67,954,829s10.41-30.49,13.13-35.17,29.58-29,29.58-29l-.45-35.61Z" transform="translate(-599.55 -281.52)"/><path class="cls-51" d="M1075.05,628.24l20.23,5.59s-9.36,30-11.92,34.86-7.7,34.12-7.7,34.12l-12.53,43.89L1056,796.84s-12.23,43.17-11.17,45.74,2.56,35.32,2.56,35.32h-22.64s-10.72-58.56-10.26-59.62-3.63-40.61-3.63-40.61l23.7-28,2.57-32.53,17.21-39.95Z" transform="translate(-599.55 -281.52)"/><path class="cls-36" d="M1122,673.51s-8.46-9-13,3.22,8.3,85.85,8.3,85.85l16.3,81.66,9.66,33.66h8.6s-16-95.9-16-97.31-5.91-43.67-5.91-43.67S1122,675.61,1122,673.51Z" transform="translate(-599.55 -281.52)"/><path class="cls-36" d="M1173.17,780.59s11.32-32.5,11.92-37-4.38-29.89-9.81-8.9S1173.17,780.59,1173.17,780.59Z" transform="translate(-599.55 -281.52)"/><path class="cls-36" d="M1189.77,794.88s16-31.85,16-35.32,6.94-20.83,5.89-24.45-3.32-15.1-3.32-15.1-6.23,7.73-7.57,10.51-7.68,22.1-9.34,29.19-7.09,32.46-7.09,32.46S1180.26,811.49,1189.77,794.88Z" transform="translate(-599.55 -281.52)"/><path class="cls-52" d="M1189.77,877.3s27.47-97.38,27.47-99.63,2.72-68.79,3-70.94,2,0,2,0,95,120.61,125.83,172.83Z" transform="translate(-599.55 -281.52)"/><path class="cls-36" d="M1213.32,816.17s14.64-18,14.64-22.8-1.06-28.53-1.06-28.53,8.31-2.26,12.83,3.78,2.57,28.22,2.57,28.22.91,10.12-4.23,14.5-19.92,14.79-23.54,13.73-2-8.6-2-8.6Z" transform="translate(-599.55 -281.52)"/><path class="cls-36" d="M1296.34,804.24s-13.29,24.15-22,27-34.87,14.94-38.79,20.53-18.42,27.77-18.42,27.77h-26.26s20.07-28.22,25.05-31.55,29.89-19.77,32.16-22.86,4.37-19.85,4.37-19.85,25.36-7.1,26-14S1296.34,804.24,1296.34,804.24Z" transform="translate(-599.55 -281.52)"/><path class="cls-36" d="M1256.79,877.9s22.79-21.58,24.6-24.9,5.44-16.27,9.82-18.32,18.56-3.57,20.83-2.67,14.49,14.65,16.45,18.42-30.64,16-32.15,18.11-11.47,9.36-11.47,9.36Z" transform="translate(-599.55 -281.52)"/><polygon class="cls-36" points="731.8 574.04 747.65 596.38 688.33 598.04 731.8 574.04"/><path class="cls-36" d="M1175.73,846.05s.15-9.21,4.53-6.94-1.61,19.17-1.61,19.17l-8.35,22.51s-6.19-23.57-6.19-26.59-3.17-55.24-3-56.45,7.1.15,6.34,7.55.3,26.45.3,26.45-.3,24,.31,24.42,1.81,11.77,2.71,7.54S1175.73,846.05,1175.73,846.05Z" transform="translate(-599.55 -281.52)"/><path class="cls-53" d="M1185.14,662.51s-15,38.18-16.65,42.11-9.51,40.15-9.21,43.17-2.41,13.2-1.36,16.64,4.53,19.74,5.89,21.7,5.89,15.49,5.89,15.49l-12-8.4s-4.14-30-3.23-37.13,4.83-29.64,4.83-29.64l22.58-67Z" transform="translate(-599.55 -281.52)"/><path class="cls-46" d="M1176.19,879l7.28-1.06s5.55-23.55,6.3-27.17-6.49-10.41-1.66-18,4.94-12.38,1.72-12.23-12.44,6-12.44,6l-1.2-8.3-2.42,15.55,4.88-1.21a4,4,0,0,1,3.21,3.92c.06,3.32,5.8,9.36,4.29,12.08S1176.19,879,1176.19,879Z" transform="translate(-599.55 -281.52)"/><path class="cls-46" d="M1174.53,698.43s-6.65,14-7.4,19.32-5.75,31.4-6,34.72,0,13.28,0,13.28L1173.77,720Z" transform="translate(-599.55 -281.52)"/><path class="cls-46" d="M1149.92,805s2.27-18.42,2-21.89-4.22-29.13-3.62-31.1,2.42-11,.91-11-6.49,6-6.49,8.68S1149.92,805,1149.92,805Z" transform="translate(-599.55 -281.52)"/><path class="cls-46" d="M1156.26,687.26a4.3,4.3,0,0,1-1.94,5c-3,2.11,3.6,7.85,3.6,7.85s6.19-11.92,4.83-13.43-8.56-4.83-8.43-6.95Z" transform="translate(-599.55 -281.52)"/><path class="cls-46" d="M1127.73,874.13s-2.11-29.29-4.52-38.34-17.82-59.93-17.82-67-5-22.07-5-22.07-3.62,9.48-4.37,14.12,9.5,31.65,10,38,13.58,53.13,13.88,59.17S1127.73,874.13,1127.73,874.13Z" transform="translate(-599.55 -281.52)"/><path class="cls-46" d="M920.94,789.3s11.47-16.89,14.94-17.13,9.21-4.46,10.27-1.44,0,11.71,0,11.71-13.27,8.22-12.37,10.18-4.08,16.12-4.84,17.79-4.23,15.42-4.68,16.17-8.15,10.11-9.21,12.83-17.66,10.73-13.58,1.67S919,810,919.88,805.6,920.94,789.3,920.94,789.3Z" transform="translate(-599.55 -281.52)"/><path class="cls-46" d="M895.28,779.28c-2,1.87-7.55,6.39-8.75,4.28s4.83-7.09,6.49-7.09S895.28,779.28,895.28,779.28Z" transform="translate(-599.55 -281.52)"/><path class="cls-46" d="M880.49,795s9.2-9.75,10.33-3.71-.37,15.25-2.18,15.25-9.81,3.47-10.26,5.73-2,7.4-2,7.4-6.79-11.21-6.94-9.23-3.62,9.85-3.17,11.35,3.92,10,2.57,10.86-11,12.22-10.27,13.28-5.73-10-6.79-13.73,3.62-36.53,10.57-40.16S880.49,795,880.49,795Z" transform="translate(-599.55 -281.52)"/><path class="cls-46" d="M767,642.88s5.43,29,6.79,30a53.88,53.88,0,0,1,4.08,4l-7.28-35.07Z" transform="translate(-599.55 -281.52)"/><path class="cls-46" d="M760.19,642.58c0,1.66-1.81,7.94-1.21,10s10.95,32.71,11.59,32.86,1.84-3.32,1.84-3.32-11.47-38-10.26-39.55S760.19,642.58,760.19,642.58Z" transform="translate(-599.55 -281.52)"/><path class="cls-46" d="M795.36,614.57s-5,24.54-4.23,26.65,1.55,18.14,1.55,18.14l-4.48,1.94s2.17-42.6,5-46.73S795.36,614.57,795.36,614.57Z" transform="translate(-599.55 -281.52)"/><path class="cls-46" d="M974.38,677.2s-30.65,23.95-30,24.4-42.57,28.46-42.57,29-21.89,15.29-21.58,16.08-1.81,0-1.81,0,10.43-12.5,12.84-13,10.86-6,11.16-9.81,35.77-31.1,36.9-30.94,8.57-4.23,9.08-4.68,22.85-10.87,23.75-13S974.38,677.2,974.38,677.2Z" transform="translate(-599.55 -281.52)"/><path class="cls-46" d="M844.11,730.62c2.27.41,17.06-1.31,18.87,0s9.36,5.85,10,7.21.45,5.48-.75,7-7.55-.1-7.55-2.52-14.64-9.35-16-6.94-10.57,5.59-11.32,4.08S844.11,730.62,844.11,730.62Z" transform="translate(-599.55 -281.52)"/><path class="cls-46" d="M864.79,760.62a35,35,0,0,1-18.26,5c-10.57-.15,0,6.57,0,6.57s18.71-.23,19.17-4A18.81,18.81,0,0,0,864.79,760.62Z" transform="translate(-599.55 -281.52)"/><path class="cls-46" d="M871.44,753.07s-6.05,0-8.61,3-3.78,2.19-2.42-.64,6-5.53,9.06-5.77S871.44,753.07,871.44,753.07Z" transform="translate(-599.55 -281.52)"/><path class="cls-46" d="M815.43,722.73s-6.57-1.21-7.66,3-3.64,8.45-4.86,8.45,2,11.56,4.86,12.5,9.62,3.81,9.62,3.81-6.49-10.57-5.28-13.59,5.28-10.35,5.28-10.35Z" transform="translate(-599.55 -281.52)"/><path class="cls-46" d="M782.74,686.2s-9.57,6.64-9,8.91-.3,17.51,1.51,19,7.1,7.39,7.1,7.39-1.51-10.86,0-11.47-4.53-10.56-4.53-10.56,3.32-7.4,4.53-8.76S782.74,686.2,782.74,686.2Z" transform="translate(-599.55 -281.52)"/><path class="cls-46" d="M992,778.58s-.91,17.21,0,18.57-12.53,20.48-12.53,20.48-10.27,29.48-8.91,30.54-9.66,13.43-9.66,13.43S948.56,875,949,875s-10.94-1.81-10.94-1.81,28-50.87,28-56.3S992,778.58,992,778.58Z" transform="translate(-599.55 -281.52)"/><path class="cls-46" d="M770,719.11s-5.86,28.53-4.37,31.4,1.49,32-.24,38.78-8.52,35.33-8.07,40.91,1.06,37,2.72,39.55,10.86,9.06,11.32,9.06,6.49-.61,6.49-.61-1.21-80.75-.91-87.24,1.68-35.62,1.45-40.45S770,719.11,770,719.11Z" transform="translate(-599.55 -281.52)"/><path class="cls-46" d="M807.77,687s0,10.87.87,11.62,2.26,11.17,8.75,12.3,14.8,3,16.61,4.08,7.83-2,7.83-2-11.3-3.32-11.76-6.19-6.58-6.79-9.4-9.51S807.77,687,807.77,687Z" transform="translate(-599.55 -281.52)"/><path class="cls-46" d="M829.92,607.56s-15.82,12.11-16.44,13.83S806.29,631,807.77,632s0,4.23,0,4.23,7.66-3,9.62-5.73S831,615.41,831,615.41Z" transform="translate(-599.55 -281.52)"/><path class="cls-46" d="M980.41,583.71s5.59-3.77,9.21.61-5.43,2.11-5.43,2.11Z" transform="translate(-599.55 -281.52)"/><path class="cls-46" d="M1072,612.73s-11.17-13-15.1-13C1056.94,599.71,1060.87,592.84,1072,612.73Z" transform="translate(-599.55 -281.52)"/><path class="cls-46" d="M1032.94,599.56s4.08-8.45,12.08-5.73A76.05,76.05,0,0,0,1032.94,599.56Z" transform="translate(-599.55 -281.52)"/><path class="cls-46" d="M1004.11,592s8.76-8.75,12.08,2.87C1016.19,594.88,1011.51,588.54,1004.11,592Z" transform="translate(-599.55 -281.52)"/><path class="cls-46" d="M977.54,675.94s28-19.2,28.84-27.45-2.27,0-2.27,0-25.66,23.83-27.32,24.28S977.54,675.94,977.54,675.94Z" transform="translate(-599.55 -281.52)"/><path class="cls-54" d="M799.13,847.26c3-2.87,6.31-24.15,6.32-27.92s1.83-19,6.36-23.4-5.28-39.62-7.25-40.49-7.39-1.93-7.69.94-2,91.93-.61,91.93A6.08,6.08,0,0,0,799.13,847.26Z" transform="translate(-599.55 -281.52)"/><path class="cls-55" d="M823.13,754.52s23.25,6.4,26.87,4.44,6-3.51,6-3.51S847.88,757.17,823.13,754.52Z" transform="translate(-599.55 -281.52)"/><path class="cls-56" d="M1124.87,875s-14-18.86-14.19-24.75-5.74-39-8-42.81-11.32-45.3-10.42-49.47,7.1-17,7.1-17l14.18,50.86Z" transform="translate(-599.55 -281.52)"/><path class="cls-57" d="M998.71,454s2.2-3.37,4-1.43c4.19,4.59,5.39,10.2,5.2,12.41-.56,6.59-6.39,22.12-7.13,25.24,0,0-.54-11.58-.79-13.3S994.3,464.5,998.71,454Z" transform="translate(-599.55 -281.52)"/><path class="cls-58" d="M926.35,558.08c2.23-1.93,12.46-4.76,13.28-5.6a4.23,4.23,0,0,0,.94-2.09l-25.26-5.85-4.7.89-13.39-.6H885.44L883,546.09l-24.87,7.7c.09,1.29.63,2.54,1.87,2.61,2.35.12,17.56,1.38,20.5,2.83S924.12,560,926.35,558.08Z" transform="translate(-599.55 -281.52)"/><path class="cls-58" d="M858.39,553.41c.79-1,24-7,25.76-8.31s12.91-1.25,13.73-.41,13.64.65,14.34-.07,11.46,2.23,12.16,3,13.92,2.23,13.92,2.23a9.56,9.56,0,0,1,2.25.65,3.67,3.67,0,0,0-.32-2.34c-.82-1.44-6.78-3.56-10.74-6.38-3.07-2.2-17.91-11.57-21.08-11.45s-6.56,2.06-8.91,2.06-5.43-1.88-8.36-2-13.5,9.9-16.74,11.87c-2.83,1.72-11.48,5.95-15.63,9a2.6,2.6,0,0,0-.67,1.62l0,.95v0Z" transform="translate(-599.55 -281.52)"/><path class="cls-59" d="M858.41,553.11c.79-1.05,24-7,25.76-8.31s12.91-1.25,13.73-.41,13.64.65,14.35-.07,11.45,2.23,12.15,2.95,13.93,2.23,13.93,2.23a9.51,9.51,0,0,1,2.24.65c0-.06,0-.12,0-.18l-3.18-2s-6.32-1-6.43-1-4.29-.88-4.64-.85-2.44-1.81-2.44-1.81L917.67,542l-4.52-.48-2.52-1.21-2.53-.54-3.26.24-1.76.3-3.72,1-3.27-.76-2.32-.51h-1l-3.91.66-2.26.19-2.64.81-2,1.15-1.52.78L878,545l-2.76.33-1.5.72-.79.49-1.62.51-1.41.66H869l-1.53,1.33-1.55.18-1.24.81-1.49.15-1.21.66-3.84,1.58a.69.69,0,0,0,0,.13l0,1v0Z" transform="translate(-599.55 -281.52)"/><path class="cls-60" d="M858.77,551.09c4.14-3.08,12.79-7.31,15.62-9,3.25-2,13.81-12,16.74-11.87s6,2,8.36,2,5.74-1.94,8.91-2.06,18,9.25,21.09,11.45c4,2.82,9.91,4.94,10.74,6.38a4.37,4.37,0,0,1-.64,4.52c-.82.84-11,3.67-13.27,5.6s-42.94,2.59-45.88,1.15-18.15-2.71-20.5-2.83S857.72,551.87,858.77,551.09Z" transform="translate(-599.55 -281.52)"/><path class="cls-61" d="M912.39,545.46c-1.29.37-14,.78-15.21,0s-12.12-.16-12.12-.16c-2.87,2.09-20.17,6.55-25.47,7.88l.57.23,6.24-1.13,9-2.45,5.66-1.57s3.83-1,3.89-1,1.66.64,1.66.64L896,548l2.38-.68c-.17.22,12.18-.18,13.45.09,1.8.4,10.59,2.11,12.07,1.66l11,2.06,2.57-.13.6-.52a64.71,64.71,0,0,1-10.5-1.71C926.26,548.27,913.69,545.1,912.39,545.46Z" transform="translate(-599.55 -281.52)"/><path d="M858.05,553.71s23.61-5.79,27-8.26c0,0,11-.61,12.12.17s13.92.36,15.21,0,13.87,2.81,15.16,3.29,9.6,2,12.18,1.73-1.43-1-1.43-1-13.22-1.51-13.92-2.23-11.46-3.67-12.16-2.95-13.52.91-14.35.07-12-.92-13.73.41-25,7.26-25.75,8.31Z" transform="translate(-599.55 -281.52)"/><path class="cls-62" d="M774.75,467.18l7-18a12,12,0,0,0-5.36,4.23l1.2-18s-4.15-.15-5,7.85c0,0-4.23-21.06,1.58-28.83,0,0-1.43,2.19-5.43,8,0,0,1.74-25.81,8.83-36.38,0,0-3.4,2.49-7.77,9.59,0,0,9.73-30.8,14.26-35.7,0,0-1.82-1.69-5.21,2.26,0,0,11.21-24,19.93-27.47a8.41,8.41,0,0,0-7.17,2s11.47-18.11,24.24-21.56c0,0-1.45.36-9.07,1.41,0,0,19.1-15.45,26.79-12.3,0,0-4.11-4.26-12.6-3,0,0,13.66-7,23-4.07l-5.91-4.8s6.74-3.09,15.57,3.14c0,0,2.57-4.23-1-10.12,0,0,14-.34,19.24,2.27a45.44,45.44,0,0,0-3.47-6.12s16.68,1.63,21,5.25c0,0-3.09-6.91,17.74-2.6,0,0-6.38,1.32-9.21,4.83,0,0,18.64-6.16,32.68,5.51,0,0-9.85.18-14.38,2.11,0,0,25.55,0,30.76,6.49,0,0-7.51-2.76-9.36-.08,0,0,11,1,19.92,7.17,0,0-6.18-2.41-10.26-.3,0,0,15.32,2.57,20.83,10.34,0,0-5.13-1.73-8-.9a74.91,74.91,0,0,1,17.25,13.84s-5.33-3.51-8.38-2.26c0,0,12.68,8.26,17.43,18.11,0,0-4.3-3.39-7-2.71,0,0,9.29,5.88,11.44,17.09,0,0-5.55-7.7-7.47-7.7,0,0,13.58,18.23,13.13,28.3,0,0-3.17-7.52-5.55-9.56,0,0,6.91,18.73,7.36,21.9,0,0-3.62-5.09-5.1-5.77,0,0,10.76,21.85,10.76,29,0,0-5.55-7.58-7.81-9.39,0,0,6.9,21.28,4.64,25.92,0,0-2.38-5.66-4-8.38,0,0,1.92,11.21,6.11,14.61,0,0-4.19.9-5.55-1.14,0,0-3.4,11.73-3.21,14.83l-4.37-7.24s-1.81-19-3.74-21.17c0,0-5.54-18.79-9.62-20.72,0,0,.34-15.17-.79-19.36,0,0,3.73,2.15,3.62,5.1,0,0-2.83-9.28-4.64-12.23,0,0,5.89,2.38,6.11,4.19,0,0-6.79-12.34-9.73-13.58,0,0,6.9,4.07,8.26,5.2,0,0-7.92-11.32-10.87-11.77,0,0,4.3-1.25,5,.68,0,0-11.54-10.42-13.58-11a3.34,3.34,0,0,1,4.41-.23s-7.47-9.39-17.32-8.49c0,0,1.47-2.72,5.66-1.81a21.21,21.21,0,0,0-11.77-5.09l-2.6,1.58-.12-1.92-2.26.9-1.47-3.4-3.29,2.61-4.52-2.49s-18.8.9-24.23,8.15l-1.93-3.06-.22,4.3-1.13-3.62-.46,3.4-1.81-4.08-.22,5.44-4.87-3.17A40.38,40.38,0,0,0,872.15,339s1.36-3.17,3.85-3.06c0,0-23.1,5-27.51,8.72,0,0,1.24-4.42,3.73-4.87,0,0-20.15,9.4-20.49,13.81,0,0-2.26-1.92-1.47-4.07,0,0-11.32,11.2-13.58,18.11,0,0-2.27-2-1.59-4.19,0,0-12,13.81-11.33,18.68a8.22,8.22,0,0,1-.7-4.87S798,383.79,801.73,389c0,0-1.69,1.24-2.83-.23,0,0,2.12,10.87,4.86,12.9l-2.48,6.23-1-2.26,1.7,11.88-3.31-3.17-2.46,42.19s-4.15,5.59-2.15,9.78c0,0-.8,2.52-2.61-4.87,0,0-.07,11.32,3.1,17.51,0,0-9.74-9.21-12.15-13C782.38,466,781.09,463.18,774.75,467.18Z" transform="translate(-599.55 -281.52)"/><path class="cls-63" d="M924.1,309.08c1.94-.93,9-5.94,18.29-5,0,0-16.15-5.1-28.33,7.85Z" transform="translate(-599.55 -281.52)"/><path class="cls-63" d="M908.2,302.82c1.94-.93,9-5.94,18.29-5,0,0-16.15-5.1-28.33,7.85Z" transform="translate(-599.55 -281.52)"/><path class="cls-63" d="M892.36,296.37c1.71-1.29,7.68-7.61,16.92-8.54,0,0-16.83-1.79-26.2,13.32Z" transform="translate(-599.55 -281.52)"/><path class="cls-63" d="M854.35,300.18c-.34-.87-1.17-4.94-4.19-6.3,0,0,6.2.54,6.47,9.81Z" transform="translate(-599.55 -281.52)"/><path class="cls-63" d="M873.43,291.65c-.63-.69-2.87-4.19-6.18-4.37,0,0,6-1.72,9.57,6.83Z" transform="translate(-599.55 -281.52)"/><path class="cls-64" d="M843.65,299.42c-.83-.43-4.16-2.91-7.32-1.91,0,0,5-3.72,11.36,3Z" transform="translate(-599.55 -281.52)"/><path class="cls-64" d="M833.05,306.38c-1-.26-4.69-2-8.71-.63a12.66,12.66,0,0,1,13.51,1Z" transform="translate(-599.55 -281.52)"/><path class="cls-64" d="M816.39,317c-1,.12-5.27-.12-8.68,2.68a13.24,13.24,0,0,1,13.48-4.11Z" transform="translate(-599.55 -281.52)"/><path class="cls-65" d="M800.76,336c-1,.29-5.21.79-8.09,4.14a13.24,13.24,0,0,1,12.56-6.38Z" transform="translate(-599.55 -281.52)"/><path class="cls-64" d="M788.44,358.78c-.92.48-5,1.76-7.17,5.57a13.25,13.25,0,0,1,11.15-8.6Z" transform="translate(-599.55 -281.52)"/><path class="cls-64" d="M779.58,386.51a17.77,17.77,0,0,0-5.42,8s1-8.7,8.44-12.33Z" transform="translate(-599.55 -281.52)"/><path class="cls-64" d="M775.7,415.25a17.66,17.66,0,0,0-4.47,8.54s0-8.76,7-13.22Z" transform="translate(-599.55 -281.52)"/><path class="cls-64" d="M780.14,432.43a17.67,17.67,0,0,0-2.33,9.36s-2.08-8.51,3.65-14.49Z" transform="translate(-599.55 -281.52)"/><path class="cls-64" d="M783.67,449.22a17.68,17.68,0,0,0-3.67,8.91s-.81-8.72,5.72-13.8Z" transform="translate(-599.55 -281.52)"/><path class="cls-63" d="M934.91,315.48c2.09-.82,10-5.67,19.08-3.52,0,0-15.18-7.7-29.57,5.56Z" transform="translate(-599.55 -281.52)"/><path class="cls-63" d="M945.64,321.27c2.23-.25,11.17-2.86,19.33,1.56,0,0-12.66-11.38-30-2.33Z" transform="translate(-599.55 -281.52)"/><path class="cls-63" d="M954.05,333.19c2.31-.27,11.67-3.11,19.68,1.59,0,0-12.06-12.12-30.53-2.35Z" transform="translate(-599.55 -281.52)"/><path class="cls-63" d="M970.74,344.07c1.56.55,7.9,1.76,13.33,7.11,0,0-8.19-11.12-20.68-11Z" transform="translate(-599.55 -281.52)"/><path class="cls-63" d="M974.29,354.54c1.65.65,8.72,2.11,13.19,8.2,0,0-5.62-12.61-20.48-12.65Z" transform="translate(-599.55 -281.52)"/><path class="cls-63" d="M981.68,370.81c1.45.88,8.16,3.51,10.52,9.8,0,0-1.15-12.34-16.38-15.15Z" transform="translate(-599.55 -281.52)"/><path class="cls-63" d="M986.64,389.53c1.33.93,7.31,3.77,10.11,10.21,0,0-2.58-12.56-15.72-15.78Z" transform="translate(-599.55 -281.52)"/><path class="cls-63" d="M989.59,408.59c1.21,1.25,6.86,5.37,8.61,12.7,0,0-.44-13.72-13.4-19.64Z" transform="translate(-599.55 -281.52)"/><path class="cls-63" d="M990.76,420a27.71,27.71,0,0,1,6.48,11.33s-1.41-11.94-10.08-17.54Z" transform="translate(-599.55 -281.52)"/><path class="cls-66" d="M957.26,342.58s11.1,7.17,12,11.68c0,0-.87-16.08-11.32-17a15.52,15.52,0,0,1,9.56,1.87s-6-8.28-16.24-6.64c0,0,2.84-1.67,13.06-.62,0,0-15.69-8.59-26.35-5.27a24.63,24.63,0,0,1,16.44-3s-16.79-10.31-31.72,2.34c0,0,3.5-6.75,6.93-8.58,0,0-13.86-1-16.49,10.56,0,0,.92-11.38,3-14.26,0,0-12.15,14.23-11.78,21.7,0,0,5-2.26,6.34-1.57,0,0,8.26-1.19,7.38-.58,0,0,8.91-3.88,9.55-4l4.32,4,5.24-2,2.49,2.73,9.42,2.1Z" transform="translate(-599.55 -281.52)"/><path class="cls-66" d="M819.05,355s-2.33-5.08-21.62,9.32c0,0,9.71-18.4,21.61-21.18,0,0-3.85-1.68-10.63-1.42,0,0,12.51-7.08,21.63-9.6,0,0-4.61-4.17-7.65-3.64,0,0,16.55-3.66,24.15-2.48,0,0-.63-10.11-6.94-10.51,0,0,16.61.92,20.24,7.6,0,0,8.33-10.14,5.29-14.46,0,0,9.94,10.77,9.58,15.09,0,0,8.64-5.37,5.95-15.45a12.34,12.34,0,0,1,5.73,14.21L895,311.92s.55,24.05-1.91,25.62l-15.6-8L853.26,336l-1.14-2.73L830.54,347l-1.24-3.3Z" transform="translate(-599.55 -281.52)"/><path class="cls-66" d="M894.28,336.64s2.55-15.28,2.83-19.05c.87.83,3,7.58,3,11.61,0,0-.1-9,7.15-14.92,0,0-5.3,17-3.09,21.09l-1.87.76-1.55-.72-.74,1.51-1.58-.87-1,2Z" transform="translate(-599.55 -281.52)"/><path class="cls-67" d="M958.11,342.85s10.12,6.38,11.06,10.88c0,0-1.64-15.5-12.09-16.46,0,0,5.72-1.29,10.11,1.41,0,0-8.65-8.73-18.73-5.51,0,0,5.29-2.47,15.5-1.42,0,0-21-10-30-3.38,0,0,10.66-6.72,19.92-5.06,0,0-16.88-9.16-31.81,3.49,0,0,3.83-7.55,7.27-9.38,0,0-13.81.39-16.44,12,0,0,.83-12.25,2.91-15.13,0,0-11.33,13.48-11.25,20.8,0,0,4.9-2.26,6.26-1.57,0,0,8.14-1.22,7.26-.61,0,0,9.07-3.92,9.71-4l4.3,4,5.21-2.16,2.57,3,9.4,2Z" transform="translate(-599.55 -281.52)"/><path class="cls-68" d="M819.05,354.35s-1.76-5.12-21,9.29c0,0,11-17.91,22.91-20.69a35.1,35.1,0,0,0-11.69-1.44s13-6.55,22.09-9.07c0,0-4.67-4.55-7.71-4,0,0,15.78-3,23.38-1.83,0,0,.82-10.34-5.5-10.74,0,0,14.73,1.44,18.36,8.12,0,0,9.11-9.69,6.08-14,0,0,8.88,10.22,8.53,14.54,0,0,9.47-5.11,6.78-15.19,0,0,7.21,4.19,4.71,14.14l8.73-10.74s.86,22.92-1.59,24.49l-15.59-8-24,6.15-1.16-2.91-21.63,13.65-1.4-3.27Z" transform="translate(-599.55 -281.52)"/><path class="cls-69" d="M795.17,454.2s-2.37,4-1.93,5.89l-3.17-1.7s-1.13,11.1,0,12.79c0,0-4.19-9.17-7.69-9.28a26.73,26.73,0,0,0-4.19,2,84.72,84.72,0,0,0,7-15.51s-1.82,6.34-.68,8.26c0,0,7.47-2.94,9.28-14Z" transform="translate(-599.55 -281.52)"/><path class="cls-69" d="M989.43,435.07s2.27,10.76,1.25,12.23c0,0,3.23,3.83,2.71,5.32,0,0,2.27-14.72,3.4-14.72a19.1,19.1,0,0,0,3.06,2.94s-5.21-7.81-5.21-12.67C994.64,428.17,994.87,436.88,989.43,435.07Z" transform="translate(-599.55 -281.52)"/><path class="cls-70" d="M819.76,348c-1.36,1-2.78,1.9-4.22,2.77s-2.94,1.59-4.41,2.39-2.92,1.64-4.34,2.5a29.38,29.38,0,0,0-4.12,2.86l-.07-.08a30.59,30.59,0,0,1,3.91-3.19c1.39-1,2.79-1.88,4.22-2.78s2.83-1.82,4.33-2.58a35.29,35.29,0,0,1,4.65-2Z" transform="translate(-599.55 -281.52)"/><path class="cls-70" d="M831.49,338.66a26.17,26.17,0,0,0-4.37-.47,37.54,37.54,0,0,0-4.37.08,26.76,26.76,0,0,0-4.33.86c-.72.18-1.42.44-2.13.65l-2.08.81-.05-.09,2-1c.69-.29,1.37-.61,2.08-.86a28.44,28.44,0,0,1,4.37-1.17,16.2,16.2,0,0,1,4.56-.28,10.24,10.24,0,0,1,4.34,1.37Z" transform="translate(-599.55 -281.52)"/><path class="cls-70" d="M846.38,332.35c.2-.29-.17-.5-.45-.66a5.23,5.23,0,0,0-1-.44c-.67-.24-1.35-.46-2.05-.65-1.38-.4-2.76-.84-4.18-1.16a41.56,41.56,0,0,0-8.7-1v-.1a35.94,35.94,0,0,1,8.85.27,20.56,20.56,0,0,1,4.36,1,11.58,11.58,0,0,1,2,1,6,6,0,0,1,.93.69,2.09,2.09,0,0,1,.37.5.76.76,0,0,1,.06.34.47.47,0,0,1-.2.27Z" transform="translate(-599.55 -281.52)"/><path class="cls-70" d="M855.68,332.38c-.09-1.42-.23-2.81-.45-4.17a20.2,20.2,0,0,0-1-4,9.48,9.48,0,0,0-2.32-3.35,10.21,10.21,0,0,0-3.58-2.13l0-.09a10.51,10.51,0,0,1,3.88,1.84,10,10,0,0,1,2.72,3.4,11.75,11.75,0,0,1,1.23,4.2,11.41,11.41,0,0,1-.44,4.31Z" transform="translate(-599.55 -281.52)"/><path class="cls-70" d="M865.09,329.65c.36-1.21.78-2.36,1.19-3.51s.91-2.26,1.25-3.43a14.6,14.6,0,0,0,.67-3.58,8.13,8.13,0,0,0-.51-3.58l.09-.05a8.49,8.49,0,0,1,.92,3.64,15.3,15.3,0,0,1-.39,3.76,16.15,16.15,0,0,1-1.11,3.62,13.31,13.31,0,0,1-2,3.18Z" transform="translate(-599.55 -281.52)"/><path class="cls-70" d="M879,328.85a23.36,23.36,0,0,0,2.05-4.36,31.06,31.06,0,0,0,1.35-4.59,25.83,25.83,0,0,0,.37-4.82c0-.81-.07-1.62-.11-2.43s-.2-1.62-.3-2.43l.1,0c.17.8.35,1.6.5,2.41s.26,1.63.31,2.45a26.54,26.54,0,0,1-.08,5,17,17,0,0,1-1.21,4.85,11.08,11.08,0,0,1-2.91,4.05Z" transform="translate(-599.55 -281.52)"/><path class="cls-70" d="M887.62,332.36c.54-1.32,1.11-2.59,1.65-3.88s1.19-2.52,1.7-3.82a30.93,30.93,0,0,0,1.29-4,30.17,30.17,0,0,0,.82-4.13h.1a30.17,30.17,0,0,1-.43,4.23,31.44,31.44,0,0,1-1,4.15,21.27,21.27,0,0,1-1.55,4,15.73,15.73,0,0,1-2.47,3.5Z" transform="translate(-599.55 -281.52)"/><path class="cls-70" d="M909.34,331.14a13,13,0,0,1,.15-3.36,17.93,17.93,0,0,1,1-3.21,28.93,28.93,0,0,1,1.29-3.1,17.26,17.26,0,0,1,1.81-2.81l.08.06a22.34,22.34,0,0,0-2.42,6.08c-.28,1.06-.42,2.15-.73,3.19a31.44,31.44,0,0,1-1,3.16Z" transform="translate(-599.55 -281.52)"/><path class="cls-70" d="M917.5,331.15a7.52,7.52,0,0,1,0-3.71,9.41,9.41,0,0,1,1.61-3.36,12.93,12.93,0,0,1,2.53-2.69,14,14,0,0,1,1.51-1c.52-.31,1.08-.57,1.61-.85l0,.09c-.49.34-1,.65-1.48,1a13.82,13.82,0,0,0-1.35,1.17,12,12,0,0,0-2.18,2.74,17.16,17.16,0,0,0-1.33,3.2,24.59,24.59,0,0,0-.88,3.43Z" transform="translate(-599.55 -281.52)"/><path class="cls-70" d="M928.72,327.38a15.6,15.6,0,0,1,4-3.48,17.74,17.74,0,0,1,5-2,17,17,0,0,1,5.3-.53,16.73,16.73,0,0,1,5.14,1.18l0,.1a16.79,16.79,0,0,0-10.18,0,30.58,30.58,0,0,0-4.67,2.1,44.5,44.5,0,0,0-4.45,2.68Z" transform="translate(-599.55 -281.52)"/><path class="cls-70" d="M940.17,330.34a15.57,15.57,0,0,1,4.55-1.68,18.84,18.84,0,0,1,4.86-.28,20.91,20.91,0,0,1,4.79.77,19.35,19.35,0,0,1,4.41,2l0,.09a18.59,18.59,0,0,0-4.48-1.55,19.93,19.93,0,0,0-4.68-.46,42.87,42.87,0,0,0-4.68.47c-1.56.2-3.11.48-4.68.79Z" transform="translate(-599.55 -281.52)"/><path class="cls-70" d="M952.17,335.52a6,6,0,0,1,2.56-1.12,8,8,0,0,1,2.8,0,11.82,11.82,0,0,1,2.69.69,13.31,13.31,0,0,1,2.41,1.3l0,.09a12.26,12.26,0,0,0-2.52-.91,10.46,10.46,0,0,0-2.6-.37c-.87,0-1.73.12-2.59.16l-2.66.22Z" transform="translate(-599.55 -281.52)"/><path class="cls-70" d="M954.8,339a10.38,10.38,0,0,1,3.86.65,12.19,12.19,0,0,1,3.39,2,13.93,13.93,0,0,1,2.75,2.78,14.39,14.39,0,0,1,1.81,3.42l-.09,0a13.82,13.82,0,0,0-2.11-3.14,12.91,12.91,0,0,0-2.82-2.45,28,28,0,0,0-3.31-1.71c-1.13-.53-2.29-1-3.5-1.48Z" transform="translate(-599.55 -281.52)"/><path class="cls-71" d="M894.45,336.47s2.55-14.27,2.83-18c.87.83,2.91,9.46,3,13.5,0,0-.72-10.79,6.53-16.72,0,0-5.15,15.87-2.94,20l-1.59.68-1.53-.79-.73,1.64-1.59-1.13-1.07,2.21Z" transform="translate(-599.55 -281.52)"/><path class="cls-70" d="M902,331.05a13,13,0,0,1-.2-3.57,18.3,18.3,0,0,1,.68-3.51,29.13,29.13,0,0,1,1.1-3.39,23,23,0,0,1,1.63-3.16l.09.05a26.37,26.37,0,0,0-2,6.67c-.2,1.15-.26,2.31-.47,3.45s-.4,2.3-.69,3.46Z" transform="translate(-599.55 -281.52)"/><path class="cls-70" d="M898.13,331.34a2,2,0,0,1-.84-1.19,7.51,7.51,0,0,1-.28-1.38,13.78,13.78,0,0,1,.11-2.73l.27-2.69.14-1.34a4.4,4.4,0,0,0,0-1.31l.09-.05a4.33,4.33,0,0,1,.24,1.36l.06,1.36,0,2.69c0,.9.12,1.79.09,2.66,0,.44,0,.88,0,1.31a2.56,2.56,0,0,0,.2,1.23Z" transform="translate(-599.55 -281.52)"/><g class="cls-72"><path class="cls-73" d="M971.4,371.31a3.42,3.42,0,0,0-.53-.31Z" transform="translate(-599.55 -281.52)"/><path class="cls-73" d="M977.77,384c.57.34,4.08,0,4.08,0l-5-7.47,4.41.8-8.38-11.55L976,365l-12.45-10,2.37-1.86L959.57,347l1.73-.59-13.7-9.94-7.41-.85-3.91-3.23-4,1.62L927,330.39,918.51,334l-2.34-1.18-4.68,3.28-3.06-.49-2.72,2-3.56-1.17v1.16l-1.62-1.16-1,3-.42-2.75-1.42,2.32-2.16-1.72-.56,3.88-1-2.16-16.07-7.94L853.19,337l-1.07-3L830,347.9v-2.85l-6.29,5.21-.26,3.54-6.81,8.14-1.93-4.3s-12,17.43-11.21,18.34c0,0-1.09-.8,0-4,0,0-5.85,9.85-4.49,13.25,0,0-2,.45-2-.79,0,0,1,14.94,3.51,17l-2,.68,1.13,9.62-2.15-1.36,1,7.36.2-3.4,3.31,3.17-1.7-11.88,1,2.26,2.48-6.23c-2.74-2-4.86-12.9-4.86-12.9,1.14,1.47,2.83.23,2.83.23-3.73-5.21,1.33-11.78,1.33-11.78a8.22,8.22,0,0,0,.7,4.87c-.7-4.87,11.33-18.68,11.33-18.68-.68,2.15,1.59,4.19,1.59,4.19,1-3.14,3.92-7.16,6.78-10.62l.4-.48.28-.33.35-.42.33-.37c2.91-3.38,5.44-5.89,5.44-5.89-.79,2.15,1.47,4.07,1.47,4.07.29-3.75,14.91-11.11,19.27-13.22-1.67,1.32-2.51,4.28-2.51,4.28,3.75-3.18,21-7.25,26.07-8.4a6.1,6.1,0,0,0-2.41,2.74,40.38,40.38,0,0,1,19.36,4.19L894.4,345l2,1.29.22-5.44,1.81,4.08.46-3.4,1.13,3.62.22-4.3,1.93,3.06a9.41,9.41,0,0,1,.72-.84L903,343c.26-.26.53-.51.82-.75h0c6.85-5.66,22.55-6.42,22.55-6.42l4.52,2.49,3.29-2.61,1.47,3.4,2.26-.9.12,1.92,2.6-1.58a21.21,21.21,0,0,1,11.77,5.09c-4.19-.91-5.66,1.81-5.66,1.81a17.26,17.26,0,0,1,10.16,2.49h0a27.74,27.74,0,0,1,7.16,6,3.34,3.34,0,0,0-4.41.23c1.67.46,9.75,7.56,12.59,10.09a8.5,8.5,0,0,0-4,.21c3,.45,10.87,11.77,10.87,11.77-1.13-.94-6.09-3.91-7.73-4.89,2.61,1.89,7.18,9.71,8.7,12.37-1.46-1.61-5.61-3.29-5.61-3.29,1.21,2,2.88,6.77,3.85,9.74a9.78,9.78,0,0,0-2.83-2.61c1.13,4.19.79,19.36.79,19.36,1,.48,2.11,2,3.2,4L977.77,406l-.56-15.4,2.6.79S977.21,383.67,977.77,384Z" transform="translate(-599.55 -281.52)"/></g><path class="cls-74" d="M1003.81,419.56c0-7.13-10.76-29-10.76-29,1.48.68,5.1,5.77,5.1,5.77-.45-3.17-7.36-21.9-7.36-21.9,2.38,2,5.55,9.56,5.55,9.56.45-10.07-13.13-28.3-13.13-28.3,1.92,0,7.47,7.7,7.47,7.7-2.15-11.21-11.44-17.09-11.44-17.09,2.72-.68,7,2.71,7,2.71-4.75-9.85-17.43-18.11-17.43-18.11,3-1.25,8.38,2.26,8.38,2.26A74.91,74.91,0,0,0,960,319.34c2.87-.83,8,.9,8,.9-5.51-7.77-20.83-10.34-20.83-10.34,4.08-2.11,10.26.3,10.26.3C948.45,304,937.47,303,937.47,303c1.85-2.68,9.36.08,9.36.08-5.21-6.45-30.76-6.49-30.76-6.49,4.53-1.93,14.38-2.11,14.38-2.11-14-11.67-32.68-5.51-32.68-5.51,2.83-3.51,9.21-4.83,9.21-4.83-20.83-4.31-17.74,2.6-17.74,2.6-4.3-3.62-21-5.25-21-5.25a45.44,45.44,0,0,1,3.47,6.12l-.19-.09c7,14.28,11.49,39,13.61,53.09a35.24,35.24,0,0,1,6.36,2.51l4.87,3.17.22-5.44,1.81,4.08.46-3.4,1.13,3.62.22-4.3,1.93,3.06c5.43-7.25,24.23-8.15,24.23-8.15l4.52,2.49,3.29-2.61,1.47,3.4,2.26-.9.12,1.92,2.6-1.58a21.21,21.21,0,0,1,11.77,5.09c-4.19-.91-5.66,1.81-5.66,1.81,9.85-.9,17.32,8.49,17.32,8.49a3.34,3.34,0,0,0-4.41.23c1.67.46,9.75,7.56,12.59,10.09a8.5,8.5,0,0,0-4,.21c3,.45,10.87,11.77,10.87,11.77-1.13-.94-6.09-3.91-7.73-4.89,2.61,1.89,7.18,9.71,8.7,12.37-1.46-1.61-5.61-3.29-5.61-3.29,1.21,2,2.88,6.77,3.85,9.74a9.78,9.78,0,0,0-2.83-2.61c1.13,4.19.79,19.36.79,19.36,4.08,1.93,9.62,20.72,9.62,20.72,1.93,2.15,3.74,21.17,3.74,21.17L994,456c-.19-3.1,3.21-14.83,3.21-14.83,1.36,2,5.55,1.14,5.55,1.14-4.19-3.4-6.11-14.61-6.11-14.61,1.58,2.72,4,8.38,4,8.38,2.26-4.64-4.64-25.92-4.64-25.92C998.26,412,1003.81,419.56,1003.81,419.56Z" transform="translate(-599.55 -281.52)"/></g></svg>