<svg id="Layer_1" data-name="Layer 1" xmlns="http://www.w3.org/2000/svg" viewBox="0 0 1720 881"><defs><style>.cls-1{fill:#fff;}</style></defs><polygon class="cls-1" points="0.5 880.5 0.5 381.5 99.5 381.5 99.5 781.5 499.5 781.5 499.5 880.5 0.5 880.5"/><path d="M199,481V881H599v98H101V481h98m1-1H100V980H600V880H200V480Z" transform="translate(-100 -99)"/><polygon class="cls-1" points="1620.5 499.5 1620.5 99.5 1220.5 99.5 1220.5 0.5 1719.5 0.5 1719.5 499.5 1620.5 499.5"/><path d="M1819,100V598h-98V198H1321V100h498m1-1H1320V199h400V599h100V99Z" transform="translate(-100 -99)"/></svg>